<?xml version="1.0" encoding="utf-8"?>
<!-- Generator: Adobe Illustrator 21.0.0, SVG Export Plug-In . SVG Version: 6.00 Build 0)  -->
<svg version="1.1" id="Layer_1" xmlns="http://www.w3.org/2000/svg" xmlns:xlink="http://www.w3.org/1999/xlink" x="0px" y="0px"
	 viewBox="0 0 559 528" style="enable-background:new 0 0 559 528;" xml:space="preserve">
<style type="text/css">
	.st0{fill:#EDF2FA;}
	.st1{fill:#F9C7D9;}
	.st2{fill:#ED1B67;}
	.st3{fill:#618DC9;}
	.st4{fill:none;stroke:#14489F;stroke-linecap:round;stroke-linejoin:round;stroke-miterlimit:10;}
	.st5{fill:#00AD9F;}
	.st6{fill:none;stroke:#00AD9F;stroke-linecap:round;stroke-linejoin:round;stroke-miterlimit:10;}
	.st7{fill:#3D60AD;}
	.st8{fill:#63C5B5;}
	.st9{opacity:0.2;fill:#5275A0;}
	.st10{fill:#8ED2C8;}
	.st11{fill:#5055A5;}
	.st12{fill:#F59FC0;}
	.st13{fill:#ED1967;}
	.st14{fill:#F05D7E;}
	.st15{fill:#EBEBEB;}
	.st16{fill:#FFFFFF;}
	.st17{fill:url(#SVGID_1_);}
	.st18{fill:url(#SVGID_2_);}
	.st19{fill:url(#SVGID_3_);}
	.st20{opacity:5.000000e-02;fill:#010101;enable-background:new    ;}
	.st21{fill:url(#SVGID_4_);}
	.st22{fill:#B21E4F;}
	.st23{fill:#EF4785;}
	.st24{fill:none;stroke:#EF4785;stroke-width:2;stroke-miterlimit:10;}
	.st25{fill:none;stroke:#B21E4F;stroke-width:2;stroke-miterlimit:10;}
	.st26{fill:#CC376F;}
	.st27{fill:#DD3F80;}
	.st28{fill:none;stroke:#B21E4F;stroke-miterlimit:10;}
	.st29{fill:none;stroke:#CC376F;stroke-miterlimit:10;}
	.st30{fill:none;stroke:#B21E4F;stroke-width:0.25;stroke-miterlimit:10;}
	.st31{fill:none;stroke:#CC376F;stroke-width:0.5;stroke-miterlimit:10;}
	.st32{fill:#7A1134;}
	.st33{fill:#ED1764;}
	.st34{fill:#F173A2;}
	.st35{fill:none;stroke:#ED1B67;stroke-width:2;stroke-miterlimit:10;}
</style>
<g>
	<g>
		<path class="st0" d="M129.6,118.9c15.6,1,22.2-9.6,29.5-23.3c20.1-37.5,64.8-33.9,79.8-10.8c10.6,16.4,33.6,13,52.1,6.6
			c18.3-6.3,49.4-12.4,74.1-4.8c21.6,6.6,30.5,30.3,50.2,28.8c43-3.2,64.7,39.3,56.9,57.8c-5.1,12.1-7.6,25.6-3.5,38.1
			c4.6,13.7,15,24.6,23.4,36.3c8.4,11.8,15.2,26.5,11,40.3c-3.6,11.8-14.2,20-20.9,30.5c-20.6,32.5-0.2,82.2-27.6,109.3
			c-19.6,19.4-51.6,14.9-79.1,18.6c-22.9,3.1-44.4,12.7-67.2,16.5c-46.1,7.6-92.8-9.2-139.5-9.6c-16.5-0.2-33.3,1.7-49.2-2.4
			c-21.3-5.4-39.4-21.8-46.8-42.3c-10.2-28.3-0.5-61.1-12.1-88.9C51.5,296.9,28.5,278.4,30,254c0.9-15.2,11.3-27.9,18.4-41.4
			C59,192.5,45,113.2,129.6,118.9z M265.8,82.1c-4.1,0-7.4,2.5-7.4,5.7s3.3,5.4,7.4,5.7c13.3,0.9,13.3-4.5,13.3-7.7
			C279.1,80.8,269.9,82.1,265.8,82.1z M401.4,106.4c3.6,2.9,8.1,4.7,12.8,5c1.2,0.1,2.6,0,3.5-0.8c1.2-1,1.3-3,0.3-4.1
			c-0.7-0.7-1.6-1-2.5-1.4c-1.5-0.6-3-1.5-3.9-2.9c-0.3-0.4-0.5-0.9-0.9-1.1C408.1,99.7,396.7,102.5,401.4,106.4z M424.1,111.4
			c1.2,0.4,2.5,0,3.6-0.4c0.8-0.2,1.7-0.8,1.5-1.6c-0.1-0.4-0.4-0.6-0.8-0.8c-1.6-0.8-3.6-1.4-5.1-0.4
			C421.8,109.4,422.9,111,424.1,111.4z M478.4,218.7c0.2,1.8,1.3,3.3,2.4,4.7c2,2.8,4.1,5.6,6.8,7.8c1.1,0.9,2.5,1.7,3.9,1.8
			c1.3,0,2.6-0.6,3.7-1.3c2.6-1.9,4.4-4.9,4.8-8.1c0.5-4.4-1.5-8.7-3.9-12.4c-1.5-2.3-3.2-4.6-5.7-5.9c-4.1-2.1-6.9-0.3-8,3.4
			C481.3,212,478,215,478.4,218.7z M38,321.2c-2.2,1.9-0.2,7.5,0.4,11.2c0.2,1.1,0.5,2.3,1.2,3.2c1,1.2,2.6,1.7,4.1,2.1
			c2.7,0.8,5.9,1.4,7.9-0.4c1.5-1.4,1.7-3.6,1.7-5.7c0-1.9-0.1-3.7-0.3-5.6c-0.1-0.9-0.2-1.8-0.7-2.6c-0.6-1-1.7-1.5-2.7-2
			C45.7,319.9,40.2,319.3,38,321.2z M171.2,462c-1.3,0.3-2.8,0.8-3,2.1c-0.2,1.1,0.7,2,1.6,2.6c7.1,5.3,16.7,5.6,25.6,5.8
			c1,0,2.1,0,3.1-0.4c1.9-0.8,2.8-3.3,1.9-5.2c-0.3-0.7-0.8-1.2-1.4-1.8C191.9,458.2,180.1,460.2,171.2,462z M348.9,458.4
			c-8,5.9,0.1,11.1,10.2,7.2c5.5-2.1,10.7-4.2,16.3-5.6c1.8-0.5,12.7-2.8,12.7-5.3c0-6.5-12.3-5-20.1-3.9
			C361.9,451.8,355.5,453.5,348.9,458.4z"/>
	</g>
</g>
<g>
	
		<ellipse transform="matrix(0.9501 -0.3119 0.3119 0.9501 -42.2086 88.7096)" class="st1" cx="256.2" cy="176.3" rx="3.9" ry="3.9"/>
	
		<ellipse transform="matrix(0.9501 -0.3119 0.3119 0.9501 -40.6537 92.9749)" class="st1" cx="270.3" cy="173.6" rx="1.7" ry="1.7"/>
	
		<ellipse transform="matrix(0.9501 -0.3119 0.3119 0.9501 -38.2237 91.4408)" class="st1" cx="266.8" cy="165.2" rx="2.1" ry="2.1"/>
</g>
<g>
	<ellipse transform="matrix(0.9501 -0.3119 0.3119 0.9501 -12.1586 108.7839)" class="st1" cx="334" cy="92.4" rx="3.9" ry="3.9"/>
	
		<ellipse transform="matrix(0.9501 -0.3119 0.3119 0.9501 -13.7134 104.5182)" class="st1" cx="319.9" cy="95.1" rx="1.7" ry="1.7"/>
	
		<ellipse transform="matrix(0.9501 -0.3119 0.3119 0.9501 -16.1426 106.0454)" class="st1" cx="323.5" cy="103.5" rx="2.1" ry="2.1"/>
</g>
<g>
	
		<ellipse transform="matrix(0.4402 -0.8979 0.8979 0.4402 187.5775 445.0307)" class="st1" cx="450.7" cy="72.1" rx="3.9" ry="3.9"/>
	
		<ellipse transform="matrix(0.4402 -0.8979 0.8979 0.4402 187.9476 429.9336)" class="st1" cx="438.8" cy="64.2" rx="1.7" ry="1.7"/>
	<ellipse transform="matrix(0.4402 -0.8979 0.8979 0.4402 178.5615 431.718)" class="st1" cx="435.5" cy="72.7" rx="2" ry="2"/>
</g>
<g>
	
		<ellipse transform="matrix(0.4402 -0.8979 0.8979 0.4402 76.8548 485.4415)" class="st1" cx="427.7" cy="181.1" rx="3.9" ry="3.9"/>
	
		<ellipse transform="matrix(0.4402 -0.8979 0.8979 0.4402 77.2276 470.2365)" class="st1" cx="415.7" cy="173.2" rx="1.7" ry="1.7"/>
	
		<ellipse transform="matrix(0.4402 -0.8979 0.8979 0.4402 67.7752 472.0327)" class="st1" cx="412.4" cy="181.7" rx="2.1" ry="2.1"/>
</g>
<g>
	<ellipse transform="matrix(0.9501 -0.3119 0.3119 0.9501 -54.8754 54.382)" class="st1" cx="142.6" cy="198.8" rx="3.9" ry="3.9"/>
	
		<ellipse transform="matrix(0.9501 -0.3119 0.3119 0.9501 -50.6099 52.8271)" class="st1" cx="139.9" cy="184.6" rx="1.7" ry="1.7"/>
	
		<ellipse transform="matrix(0.9501 -0.3119 0.3119 0.9501 -52.1392 50.3959)" class="st1" cx="131.5" cy="188.2" rx="2.1" ry="2.1"/>
</g>
<g>
	
		<ellipse transform="matrix(0.4513 -0.8924 0.8924 0.4513 14.7685 232.9538)" class="st1" cx="196.8" cy="104.5" rx="3.9" ry="3.9"/>
	<ellipse transform="matrix(0.4513 -0.8924 0.8924 0.4513 29.8121 233.6032)" class="st1" cx="204.9" cy="92.6" rx="1.7" ry="1.7"/>
	<ellipse transform="matrix(0.4513 -0.8924 0.8924 0.4513 28.2032 224.2148)" class="st1" cx="196.4" cy="89.2" rx="2.1" ry="2.1"/>
</g>
<g>
	<ellipse transform="matrix(0.9501 -0.3119 0.3119 0.9501 -14.3725 32.7599)" class="st1" cx="95.2" cy="61.3" rx="3.9" ry="3.9"/>
	<ellipse transform="matrix(0.9501 -0.3119 0.3119 0.9501 -12.8176 37.0252)" class="st1" cx="109.3" cy="58.6" rx="1.7" ry="1.7"/>
	<ellipse transform="matrix(0.9501 -0.3119 0.3119 0.9501 -10.3883 35.4932)" class="st1" cx="105.8" cy="50.2" rx="2.1" ry="2.1"/>
</g>
<path class="st2" d="M496.6,485.5H40c-6.4,0-11.5-4.1-11.5-9.2l0,0c0-5.1,5.2-9.2,11.5-9.2h456.7c6.4,0,11.5,4.1,11.5,9.2l0,0
	C508.2,481.4,503,485.5,496.6,485.5z"/>
<g>
	<g>
		<path class="st3" d="M102.1,222.2c-0.3,4.2-0.9,8.3-1.8,12.3c-1.9,8.8-4.9,17.4-7.9,25.9c-1.6,4.4-8.8,15.1-13,17.4
			c-0.6-11.1-1.9-24-4.4-34.9c-2.3-10.6,0.7-19.1-4.6-28.6c-0.7-1.2-1.4-2.4-2-3.6c-2.6-4.5-5.1-9-6.3-14.1
			c-1.5-6.4-0.3-13.9,5-17.9c3.8-2.8,9-3.3,13.5-1.8s8.3,4.6,11.3,8.2C100.3,195.1,103.1,209,102.1,222.2z"/>
		<path class="st4" d="M78.9,188.5c9.4,10.8,11.6,24.2,13.8,38.4c2.2,14.1,0.3,28.9-5.5,42"/>
	</g>
	<g>
		<path class="st5" d="M100.8,402.9c-6.3-4.5-12.7-9.1-17.6-15C79,382.7,75.9,376.6,72,371c-2.5-3.6-5.3-7-7-11
			c-1.6-4-1.9-9,0.8-12.5c2.7-3.6,8-4.7,12.4-3.4c4.4,1.3,7.9,4.5,10.8,8c3.8,4.7,6.5,10.2,8.1,16.1c1.4,5.3,1.7,10.8,3.1,16.1
			c1.3,4.9,3.5,9.6,6.1,13.9c2.4,4,8,10.9,9.7,15C112.7,415.4,103.5,404.8,100.8,402.9z"/>
		<path class="st6" d="M75.2,352.1c5.7,1.8,8.6,8.1,10.3,13.9c2,6.6,2.5,13.8,6.2,19.6c7,10.9,15.8,23.1,21.8,26.4"/>
	</g>
	<g>
		<path class="st7" d="M70.8,390.2c-5-1.4-11.5-1.5-14.1,2.9c-2.2,3.7-0.4,8.5,1.8,12.2c1.8,3.2,4.1,6.3,7.4,7.8
			c2.3,1,4.9,1.1,7.4,1.1c7,0.1,13.9-0.2,20.9-1c8-0.9,18.1,1.4,25.3,5.7C109.3,404.1,87.6,394.8,70.8,390.2z"/>
		<path class="st4" d="M63.5,401.3c6.1-0.4,12.3-0.6,18.3,0.5c6.2,1.1,30.3,9.3,34.3,13.4"/>
	</g>
	<g>
		<path class="st8" d="M119.6,352.2c-7.2-9.1-18.6-14.8-30.2-15.1c-8.6-0.3-17.1,2.2-25.7,1.3c-9-0.9-17.5-5.8-22.9-13
			c-5.4-7.2-7.6-16.8-5.9-25.6c1.3-6.7,5.1-13.4,11.4-16.2c3.4-1.5,7.3-1.8,11-1.3c3.4,0.5,6.7,1.5,9.7,3c7,3.5,12.9,9.3,17.6,15.6
			c4.2,5.8,14.1,14.4,20.8,20c3.9,3.3,6.8,5.5,6.8,5.5C116.9,331.2,116.5,346.3,119.6,352.2z"/>
		<path class="st6" d="M46.4,302.7c21.3,7.1,44.8,16.8,61,32.3"/>
	</g>
	<g>
		<path class="st9" d="M109.1,332.5c0,0-32.9-21.4-42-47.2c7,3.5,12.9,9.3,17.6,15.6c4.2,5.8,14.1,14.4,20.8,20
			C106.5,324.2,107.7,328,109.1,332.5z"/>
		<path class="st9" d="M100.3,234.5c-1.9,8.8-4.9,17.4-7.9,25.9c-1.6,4.4-8.8,15.1-13,17.4c-0.6-11.1-1.9-24-4.4-34.9
			c-2.3-10.6,0.7-19.1-4.6-28.6c-0.7-1.2-1.4-2.4-2-3.6c0.4,0.1,0.8,0.2,1.2,0.3c7.2,2.2,11.2,9.2,12.5,16.3
			c1.1,5.8,0.7,11.8,0.5,17.7c-0.1,2.7-0.1,5.5,0.8,8.1c0,0,0,0.1,0,0.1c1.1,3.1,5.6,2.4,5.9-0.8l0.8-10c0.2-3,0.5-6.1,2.7-8.4
			c0.9-0.9,2-1.5,3.3-1.6C98,232.1,99.3,233.1,100.3,234.5z"/>
		<path class="st10" d="M108.5,326.3c-7.4-24.5-10.3-28.1-8.9-34.6c1.9-8.3-0.5-16.2,1.2-24.5s2.5-17.1-0.4-25.1
			c-0.9-2.5-2.5-5.2-5.6-5c-1.2,0.1-2.4,0.7-3.3,1.6c-2.2,2.3-2.5,5.4-2.7,8.4l-0.8,10c-0.3,3.2-4.8,3.9-5.9,0.8c0,0,0-0.1,0-0.1
			c-0.9-2.6-0.8-5.4-0.8-8.1c0.2-5.9,0.6-11.9-0.5-17.7c-1.3-7-5.3-14-12.5-16.3c-2.6-0.8-5.4-0.7-7.9,0.2c-7,2.6-8.2,9.9-6.5,15.8
			c1.2,4.2,3.6,7.9,5.8,11.6c5.4,9.1,3.1,18.2,4.8,28.6C69.3,300.8,108.5,326.3,108.5,326.3z"/>
		<path class="st6" d="M65.2,223.2c5.4,17.4,10.9,35,19.5,51c2.5,4.7,4.2,11.1,17.3,23.3"/>
	</g>
	<g>
		<path class="st11" d="M68.5,166.2c1.1-0.2,8.1-6.6,10.9-8.8c0.8-0.6,1.6-1.3,2-2.1c0.5-0.9,0.6-2,0.1-2.8
			c-0.6-1.1-1.6-2.1-3.8-1.8c-3.8,0.4-5,1.8-6.6,3.9C65.7,161.4,68.5,166.2,68.5,166.2z"/>
		<path class="st11" d="M105.1,185.4c3.5,1.1,7.2,2.3,10.7,1.4c1.4-0.3,2.8-1.1,3.2-2.5c0.3-1.2-0.4-2.4-1.4-3.1
			c-1-0.7-2.2-1-3.4-1.1c-4.5-0.6-10.7,0.6-14.9,2.3C99.3,182.4,103,184.7,105.1,185.4z"/>
		<path class="st11" d="M121.8,134.1c-1.6-0.8-3.3-1.9-3.5-3.6c-0.2-1.8,1.5-3.3,3.3-3.5s3.5,0.6,4.9,1.6c6.1,4.3,6,10,6,10
			S123.6,135,121.8,134.1z"/>
		<path class="st11" d="M124.7,118.7c-1.4-0.4-2.8-1-3.7-2.1c-0.4-0.5-0.7-1.3-0.6-1.9c0.3-1.1,0.8-2.2,3.6-2
			c8.8,0.7,11.3,6.4,11.3,6.4S127.1,119.5,124.7,118.7z"/>
		<path class="st11" d="M151.4,129.2c3.4-0.7,6.9-2.8,8.8-5.7c0.7-1.1,1.4-2.3,1.5-3.6c0.1-1.3-0.3-2.8-1.4-3.5
			c-1.3-0.9-3.2-0.6-4.5,0.5c-1.2,1-2,2.6-2.5,4.1C152.6,122.9,151.4,129.2,151.4,129.2z"/>
		<path class="st4" d="M98.6,286.5c-9.2-6.5-0.6-21.5-19.1-26c-25-6-23.1-55.5-15.9-66.2c7.2-10.7,18.7-17.8,30.4-23.3
			c11.7-5.5,24-9.8,35-16.6c6.9-4.3,13.6-10.3,14.8-18.3c0.7-4.8-0.8-9.9-4.1-13.6c-3.3-3.6-8.2-5.7-13.1-5.5"/>
		<path class="st4" d="M156.5,120.5c-1.6,7.3-10.1,12.5-13.5,19.1"/>
		<path class="st4" d="M125.2,132c2,1.7,4.2,3,6,4.9c3.7,4,4.7,11,0.4,15.9"/>
		<path class="st4" d="M83.9,176.3c8,5,18.2,7.7,27.6,7.1"/>
		<path class="st4" d="M68,188.5c-4.5-9.7-2-22.2,5.8-29.5"/>
	</g>
</g>
<g>
	<g>
		<path class="st8" d="M455.4,270.8c5.8-9.5,2.8-21.7,4.8-32.7c1.5-8.4,6.2-16.2,12.9-21.5c4.2-3.3,10.1-5.7,14.9-3.2
			c1,0.5,2.3,1.3,3.2,0.7c0.6-0.4,0.8-1.1,1-1.8c1.2-5.9-1.6-12.4,0.7-17.9c1.2-3,3.8-5.2,6.6-7c5.3-3.4,11.5-5.3,17.7-5.6
			c1.7-0.1,3.4,0,4.9,0.7c2.7,1.3,3.9,4.7,3.6,7.7c-0.4,3-2,5.6-3.8,8c-6.1,7.9-15,14.8-16.1,24.7c-0.1,1.3-0.1,2.6,0.4,3.7
			c0.6,1.1,1.6,1.9,2.2,2.9c1.9,3.4-1.7,7.3-5.3,9c-3.2,1.5-6.7,2.5-10.3,2.8c-2.4,0.2-5.2,0.3-6.9,2.1c-3.1,3.3,0.5,8.7-0.2,13.2
			c-0.4,2.8-2.4,5.1-4.5,7c-3.8,3.6-7.9,6.9-12.4,9.7c-3.6,2.3-7.4,4.3-10.6,7.2c-3.2,2.8-5.8,6.7-6,10.9"/>
		<path class="st6" d="M463,261.6c0.9-4.6,3.1-8.9,5.2-13.1c3.3-6.6,6.7-13.2,11.7-18.6c3.8-4.1,8.4-7.3,12.3-11.3
			c2.8-2.9,5.1-6.1,7-9.7c1-1.9,1.9-3.9,3.2-5.6c1.6-2,3.8-3.4,5.7-5.1c2.6-2.3,4.7-5.2,6-8.3"/>
	</g>
	<g>
		<path class="st3" d="M538.3,277.4c-1.3,5-3.2,10-6.5,13.9c-2.3,2.7-5.1,4.9-8.3,6.7c-1.6,0.9-3.3,1.7-5,2.4
			c-6.6,2.8-13.7,4.4-20.9,4.6c-10.4,0.4-21.2-1.9-31.2,1.1c-4.6,1.4-8.8,3.8-12.3,7.1c-2.2,2-4,4.4-5.5,7l1.4-8.7
			c2.5-9.3,5.1-18.8,10.3-27c3.3-5.3,7.6-9.9,12.2-14.1c7.3-6.8,15.5-12.8,24.5-17.1c7.3-3.5,15.3-6,23.4-5c8,1,15.9,6,18.4,13.7
			C540.4,267,539.7,272.4,538.3,277.4z"/>
		<path class="st4" d="M456.8,305c7.7-11.3,19.2-20.1,32.2-24.4c8.1-2.7,16.7-3.7,24.9-6.1c8.2-2.4,16.4-6.4,21.2-13.4"/>
	</g>
	<g>
		<path class="st8" d="M461.9,388.3c0.5-11.7,6.5-22.4,13.8-31.5c6.1-7.6,13.5-14.5,22.6-18c2.8-1.1,6-1.8,8.9-1.1
			c3,0.7,5.6,3.3,5.7,6.3c0,2.6-1.7,4.8-3.5,6.6c-6,6-13.7,9.8-20.9,14.2c-12.4,7.5-24.3,17.6-29.2,31.2"/>
		<path class="st6" d="M466.5,378.1c7.6-17,27.3-32.1,40.3-34"/>
	</g>
	<g>
		<path class="st5" d="M457.1,397.5c-0.1-2,6.3-7.1,7.7-8.4c8-7.2,17.4-12.5,27.4-15.6c4-1.3,8.3-2.2,12.4-1.2c4,1,7.7,4.3,8.1,8.6
			c0.4,4.2-2.5,8.4-6.1,10.4c-3.6,2-7.9,2.4-11.9,2.1c-6.2-0.4-12.4-1.9-18.6-1.9C469.9,391.7,461.1,392.3,457.1,397.5z"/>
		<path class="st6" d="M463.6,391.6c12.8-6.9,32.1-11.4,46.2-9.7"/>
	</g>
	<g>
		<path class="st11" d="M389.9,128.9c-0.4-1.3-0.4-2.8,0.5-3.7c0.7-0.7,2-1.1,2.9-0.7c7.4,3.3,6.6,14.9,6.6,14.9
			S392.9,138.4,389.9,128.9z"/>
		<path class="st11" d="M389.7,150.6c-4.8,8.7,12.3,8,18.4,2.9C408.1,153.5,393.8,143.2,389.7,150.6z"/>
		<path class="st11" d="M411.3,129.6c-1.2-1.6-1.6-4-0.3-5.5c0.9-1.1,2.6-1.5,4-1.2c1.4,0.3,3.6,1.6,4.5,2.7c5.6,7,3,13.8,3,13.8
			S413.2,132.2,411.3,129.6z"/>
		<path class="st11" d="M479.1,151.1c-0.4-1.4-0.3-3,0.7-3.9c0.7-0.6,1.6-0.8,2.5-0.7c0.9,0.1,1.7,0.4,2.6,0.8
			c1.7,0.8,3.1,2.2,3.9,3.9c2.1,4.3,0.7,9.7,0.7,9.7S480.1,154.5,479.1,151.1z"/>
		<path class="st11" d="M457.8,167c-3-2.7-7.6-3.4-11.3-1.8c-0.9,0.4-1.8,1-2.4,1.8c-1.3,1.9-0.9,4.6,0.5,6.4
			c1.4,1.8,3.5,2.9,5.6,3.9c3.8,1.7,9.7,2.1,13.7,3.1C463.9,180.4,463.9,172.4,457.8,167z"/>
		<path class="st4" d="M395.2,130.8c2.5,8.2,9.6,14.4,17.5,17.8c7.9,3.4,16.6,4.2,25.2,4.8c8.6,0.6,17.3,0.8,25.6,3.1
			c8.1,2.2,16.1,6.8,19.6,14.4c4.2,9.3,0.5,20.4-5.4,28.7c-5.9,8.3-13.9,15-19.7,23.4c-2.6,3.9-4.8,8.4-4.3,13.1
			c0.7,6.2,5.9,10.8,10.8,14.7"/>
		<path class="st4" d="M415,127.8c5.7,6.3,10.2,16.1,11.3,24.5"/>
		<path class="st4" d="M395.9,152.1c3.3,0.9,6.5,1.7,9.9,1.7c3.4,0,7.3-1.9,9.7-4.2"/>
		<path class="st4" d="M484.7,151.6c3,2.9,4.9,7.1,5.1,11.3c0.2,4.2-2.2,9.4-5,12.5"/>
		<path class="st4" d="M452.8,170.8c6.1,5.6,11.4,10.1,18.1,14.9c3.1,2.2,9.2,5,11.9,4.2"/>
	</g>
	<g>
		<path class="st9" d="M523.5,298c-1.6,0.9-3.3,1.7-5,2.4c-6.6,2.8-13.7,4.4-20.9,4.6c-10.4,0.4-21.2-1.9-31.2,1.1
			c-4.6,1.4-8.8,3.8-12.3,7.1c-0.3,0.2-0.7,0.4-1,0.6c-0.8-7.1,16.8-16.3,22.1-18.7c9.7-4.3,20.4-6.3,31-5.4
			c4.6,0.4,9.4,1.3,13.2,3.9C521.1,294.8,522.5,296.3,523.5,298z"/>
		<path class="st8" d="M506.3,294c4.6,0.4,9.4,1.3,13.2,3.9s6.5,7.3,5.6,11.9c-1,5.3-6.5,8.8-11.9,9.4c-5.4,0.7-10.7-0.8-16-1.9
			c-11.7-2.4-23.8-3-35.7-1.6c-3,0.3-5.8,0.9-8.4,2.4c-0.8-7.1,16.8-16.3,22.2-18.7C484.9,295.1,495.7,293.2,506.3,294z"/>
		<path class="st6" d="M457.7,313.6c8.8-7.7,31.2-12.9,47.1-11.2c4.8,0.5,9.6,1.9,13.3,5"/>
	</g>
</g>
<g>
	<g>
		<path class="st12" d="M478.5,91.4c-10.5,0-17.1,5.3-19.8,15.8c4-5.3,8.6-7.2,13.8-5.9c3,0.8,5.2,2.9,7.5,5.3
			c3.9,3.9,8.3,8.5,18.1,8.5c10.5,0,17.1-5.3,19.8-15.8c-4,5.3-8.6,7.2-13.8,5.9c-3-0.8-5.2-2.9-7.5-5.3
			C492.8,96,488.3,91.4,478.5,91.4z M458.8,115.1c-10.5,0-17.1,5.3-19.8,15.8c4-5.3,8.6-7.2,13.8-5.9c3,0.8,5.2,2.9,7.5,5.3
			c3.9,3.9,8.3,8.5,18.1,8.5c10.5,0,17.1-5.3,19.8-15.8c-4,5.3-8.6,7.2-13.8,5.9c-3-0.8-5.2-2.9-7.5-5.3
			C473,119.7,468.5,115.1,458.8,115.1z"/>
	</g>
</g>
<g>
	<g>
		<path class="st13" d="M131.5,243.1c-1-0.8-2.4-1.2-4-1.2H119v9.6v0h8.3c0.8,0,1.5-0.1,2.2-0.2c0.7-0.1,1.3-0.4,1.8-0.7
			c0.5-0.4,1-0.8,1.3-1.4s0.5-1.3,0.5-2.3C133,245.1,132.5,243.8,131.5,243.1z"/>
		<path class="st13" d="M130.3,235.7c0.9-0.7,1.3-1.7,1.3-3.2c0-0.8-0.1-1.5-0.4-2c-0.3-0.5-0.7-0.9-1.2-1.2
			c-0.5-0.3-1.1-0.5-1.7-0.6c-0.6-0.1-1.3-0.2-2-0.2H119v8.2h7.8C128.2,236.7,129.4,236.3,130.3,235.7z"/>
		<path class="st13" d="M145.5,211h-43c-4.1,0-7.5,3.4-7.5,7.5v43c0,4.1,3.4,7.5,7.5,7.5h43c4.1,0,7.5-3.4,7.5-7.5v-43
			C153,214.3,149.6,211,145.5,211z M139.7,252c-0.7,1.3-1.6,2.4-2.8,3.2c-1.2,0.8-2.5,1.4-4,1.8s-3,0.6-4.6,0.6h-17v-35.1l16.5,0
			c1.7,0,3.2,0.1,4.6,0.4c1.4,0.3,2.6,0.8,3.5,1.4c1,0.7,1.7,1.6,2.3,2.7c0.5,1.1,0.8,2.5,0.8,4.1c0,1.8-0.4,3.3-1.2,4.4
			c-0.8,1.2-2,2.1-3.6,2.9c2.2,0.6,3.8,1.7,4.8,3.3c1.1,1.6,1.6,3.4,1.6,5.6C140.7,249.1,140.4,250.7,139.7,252z"/>
	</g>
</g>
<g>
	<path class="st13" d="M157,38.4h-14l14,33.1"/>
	<path class="st14" d="M157,81.3V107l-30-58.6h15.7L157,81.3z M157,38.4h14l-14,33.1"/>
	<path class="st13" d="M171.3,48.4H187L157,107V81.3L171.3,48.4z"/>
</g>
<g>
	<polygon class="st13" points="265.8,54.1 253,54.1 253.9,63.4 265.8,63.4 265.8,63.4 265.8,54.1 265.8,54.1 	"/>
	<path class="st13" d="M229.7,30l6.6,73.8l29.5,8.2l29.6-8.2L302,30H229.7z M289.8,99.1l-23.9,6.6v-9.4l0,0l-18.5-5.1L246,77h9.1
		l0.7,7.2l10.1,2.7l0,0V72.5h0h-20.2l-2.2-24.9l-0.2-2.4h22.7v0h0v-9h29.6L289.8,99.1z"/>
	<polygon class="st12" points="265.8,86.9 265.8,86.9 275.9,84.2 276.9,72.5 265.8,72.5 265.8,72.5 265.8,86.9 265.8,86.9 	"/>
	<polygon class="st12" points="265.8,45.1 288.5,45.1 288.3,47.5 287.8,52.1 287.7,54.1 265.8,54.1 265.8,63.4 265.8,63.4 
		286.8,63.4 286.6,65.8 284.5,89.7 284.4,91.2 265.8,96.3 265.8,105.7 289.8,99.1 295.4,36 265.8,36 	"/>
	<polygon class="st15" points="265.8,86.9 255.7,84.2 255.1,77 246,77 247.3,91.2 265.8,96.3 265.8,86.9 	"/>
	<polygon class="st15" points="253.9,63.4 253,54.1 265.8,54.1 265.8,54.1 265.8,45.1 243.1,45.1 243.4,47.5 245.6,72.5 265.8,72.5 
		265.8,63.4 	"/>
	<polygon class="st15" points="265.8,86.9 265.8,86.9 265.8,86.9 	"/>
	<polygon class="st16" points="265.8,96.3 265.8,96.3 265.8,96.3 	"/>
	<rect x="265.8" y="45.1" class="st16" width="0" height="0"/>
	<rect x="265.8" y="54.1" class="st16" width="0" height="0"/>
	<polygon class="st16" points="265.8,86.9 265.8,86.9 265.8,86.9 265.8,86.9 	"/>
	<polygon class="st16" points="284.5,89.7 286.6,65.8 286.8,63.4 265.8,63.4 265.8,72.5 276.9,72.5 275.9,84.2 265.8,86.9 
		265.8,96.3 265.8,96.3 265.8,96.3 284.4,91.2 	"/>
	<polygon class="st16" points="265.8,45.1 265.8,54.1 265.8,54.1 265.8,54.1 287.7,54.1 287.8,52.1 288.3,47.5 288.5,45.1 
		265.8,45.1 265.8,45.1 	"/>
	<polygon class="st16" points="265.8,86.9 265.8,86.9 265.8,86.9 	"/>
	<polygon class="st16" points="265.8,86.9 265.8,86.9 265.8,86.9 265.8,86.9 265.8,96.3 265.8,96.3 	"/>
	<rect x="265.8" y="63.4" class="st16" width="0" height="9"/>
	<polygon class="st16" points="265.8,54.1 265.8,54.1 265.8,45.1 265.8,45.1 265.8,54.1 	"/>
	<rect x="265.8" y="63.4" class="st16" width="0" height="9"/>
	<rect x="265.8" y="45.1" class="st16" width="0" height="9"/>
	<polygon class="st16" points="265.8,86.9 265.8,96.3 265.8,96.3 265.8,86.9 265.8,86.9 	"/>
</g>
<g>
	<path class="st13" d="M355.2,184.2l-25.3,6.8l-25.3-6.8l-5.8-63.2H361L355.2,184.2z"/>
	<path class="st12" d="M329.9,126.1v59.5l0.1,0l20.5-5.5l4.7-54H329.9L329.9,126.1z"/>
	<path class="st16" d="M329.9,141.9l-18.1,7.5l0.6,7.5l17.5-7.5l18.6-8l0.8-7.6L329.9,141.9L329.9,141.9z"/>
	
		<linearGradient id="SVGID_1_" gradientUnits="userSpaceOnUse" x1="-1144.7117" y1="1334.6206" x2="-1144.7117" y2="1337.8517" gradientTransform="matrix(4.6418 0 0 -4.6418 5634.3457 6351.9575)">
		<stop  offset="0.387" style="stop-color:#D2D3D4;stop-opacity:0"/>
		<stop  offset="1" style="stop-color:#D2D3D4"/>
	</linearGradient>
	<path class="st17" d="M311.8,149.5l0.6,7.5l17.5-7.5v-7.5L311.8,149.5z"/>
	
		<linearGradient id="SVGID_2_" gradientUnits="userSpaceOnUse" x1="-1140.6765" y1="1336.2317" x2="-1140.6765" y2="1339.5895" gradientTransform="matrix(4.6418 0 0 -4.6418 5634.3457 6351.9575)">
		<stop  offset="0.387" style="stop-color:#D2D3D4;stop-opacity:0"/>
		<stop  offset="1" style="stop-color:#D2D3D4"/>
	</linearGradient>
	<path class="st18" d="M349.2,133.9l-19.4,8.1v7.5l18.6-8L349.2,133.9z"/>
	
		<linearGradient id="SVGID_3_" gradientUnits="userSpaceOnUse" x1="-1146.6541" y1="1333.1803" x2="-1138.896" y2="1333.1803" gradientTransform="matrix(4.6418 0 0 -4.6418 5634.3457 6351.9575)">
		<stop  offset="0" style="stop-color:#E8E7E5"/>
		<stop  offset="1" style="stop-color:#FFFFFF"/>
	</linearGradient>
	<path class="st19" d="M311.8,149.5l0.6,7.5l26.8,0.1l-0.6,10l-8.8,2.5l-8.5-2.1l-0.5-6.2h-7.9l1,11.9l16,4.7l15.9-4.6l2.1-23.7
		H311.8L311.8,149.5z"/>
	<path class="st20" d="M329.9,149.5h-18.1l0.6,7.5l17.5,0.1V149.5L329.9,149.5z M329.9,169.4L329.9,169.4l-8.6-2.1l-0.5-6.2h-7.9
		l1,11.9l16,4.7V169.4L329.9,169.4z"/>
	
		<linearGradient id="SVGID_4_" gradientUnits="userSpaceOnUse" x1="-1147.0105" y1="1338.7677" x2="-1138.5867" y2="1338.7677" gradientTransform="matrix(4.6418 0 0 -4.6418 5634.3457 6351.9575)">
		<stop  offset="0" style="stop-color:#E8E7E5"/>
		<stop  offset="1" style="stop-color:#FFFFFF"/>
	</linearGradient>
	<path class="st21" d="M310.2,133.9h39.1l-0.8,7.6h-37.4L310.2,133.9L310.2,133.9z"/>
	<path class="st20" d="M329.9,133.9h-19.7l0.9,7.6h18.8V133.9L329.9,133.9z"/>
</g>
<path class="st13" d="M175.4,133.4h52.8v52.8h-52.8V133.4z M173,188.6h57.6V131H173V188.6z M210.7,151.7c0-0.2,0.1-0.3,0.3-0.3h3.8
	c0.2,0,0.3,0.1,0.3,0.3v18.9c0,0.2,0,0.3-0.3,0.3h-3.7c-0.2,0-0.3-0.1-0.3-0.3L210.7,151.7L210.7,151.7L210.7,151.7z M210.4,146.2
	c0-1.5,1.1-2.5,2.5-2.5c1.5,0,2.5,1,2.5,2.5c0,1.6-1,2.5-2.5,2.5C211.5,148.7,210.4,147.8,210.4,146.2z M199.7,159.6
	c-0.7-2.7-2.3-8.5-2.9-11.3h0c-0.5,2.8-1.8,7.6-2.8,11.3H199.7z M193,163.5l-1.9,7.2c0,0.2-0.1,0.2-0.4,0.2h-3.5
	c-0.2,0-0.3-0.1-0.2-0.4l6.8-23.9c0.1-0.4,0.2-0.8,0.2-2c0-0.2,0.1-0.2,0.2-0.2h5c0.2,0,0.2,0,0.3,0.2l7.6,25.9c0,0.2,0,0.3-0.2,0.3
	h-4c-0.2,0-0.3,0-0.4-0.2l-2-7.2H193L193,163.5z"/>
<g>
	<g>
		<g>
			<g>
				<path class="st13" d="M43.9,81v63H107V81H43.9z M104.3,141.3H46.5V83.7h57.8V141.3z"/>
			</g>
		</g>
		<g>
			<path class="st13" d="M80.2,124.3c1.1,0.7,3.2,1.2,5.5,1.2c4.5,0,7.7-2.3,7.7-6.6c0-2.9-1.3-4.8-5.5-6.9
				c-2.8-1.5-3.3-2.2-3.3-3.1c0-0.9,0.7-2,2.8-2c1.7,0,3.5,0.5,4.7,1.2c0.3,0.1,0.4-0.1,0.4-0.3v-3.7c0-0.2-0.1-0.4-0.3-0.5
				c-0.9-0.4-2.5-0.8-4.8-0.8c-4.7,0-7.4,2.9-7.4,6.4c0,3.1,1.6,5,5.4,6.8c2.7,1.4,3.3,2.3,3.3,3.2c0,1.2-0.9,2.1-3,2.1
				c-1.8,0-3.7-0.5-5.4-1.6c-0.2-0.1-0.3-0.1-0.3,0.2v4C80,124.1,80,124.2,80.2,124.3z"/>
		</g>
		<g>
			<g>
				<path class="st13" d="M59.8,125h4.1c0.2,0,0.3-0.1,0.3-0.3v-10.3c0.7,0,1.1,0.1,2.1,0.1c6.1,0,11-3,11-9.8
					c0-5.2-2.9-9.3-10.4-9.3c-2.7,0-5.2,0.1-6.9,0.1c-0.2,0-0.6,0.1-0.6,0.3v28.9C59.5,124.9,59.6,125,59.8,125z M64.2,99.7
					c0.5,0,1.5-0.1,2.6-0.1c3.6,0,5.7,1.7,5.7,5.1c0,4.3-3,5.4-6.1,5.4c-1.1,0-1.6,0-2.2-0.1V99.7z"/>
			</g>
		</g>
	</g>
</g>
<g>
	<rect x="274.4" y="416.5" class="st2" width="84.3" height="39"/>
	<rect x="274.4" y="416.5" class="st22" width="84.3" height="20.1"/>
	<path class="st23" d="M392.6,468.8c-10.4-12.1-25.9-19.8-43.1-19.8h-65.7c-17.2,0-32.7,7.7-43.1,19.8H392.6z"/>
	<path class="st22" d="M452.9,427.6H180.3c-6.5,0-11.7-5.2-11.7-11.7V214c0-6.5,5.2-11.7,11.7-11.7h272.6c6.5,0,11.7,5.2,11.7,11.7
		v202C464.5,422.4,459.3,427.6,452.9,427.6z"/>
	
		<rect x="223.5" y="186.6" transform="matrix(-1.836970e-16 1 -1 -1.836970e-16 631.5181 -1.619)" class="st12" width="186.1" height="256.6"/>
	<path class="st2" d="M168.6,382.8v33.6c0,6.2,5,11.2,11.2,11.2h273.6c6.2,0,11.2-5,11.2-11.2v-33.6H168.6z"/>
	<circle class="st23" cx="319" cy="405" r="5"/>
	<circle class="st22" cx="193" cy="227" r="2"/>
	<circle class="st22" cx="199" cy="227" r="2"/>
	<circle class="st22" cx="205" cy="227" r="2"/>
	<rect x="194" y="232" class="st22" width="16" height="146"/>
	<rect x="214" y="256" class="st22" width="70.7" height="39"/>
	<rect x="291.7" y="256" class="st22" width="70.7" height="39"/>
	<rect x="369.3" y="256" class="st22" width="70.7" height="39"/>
	
		<rect x="315.5" y="123.5" transform="matrix(-1.836970e-16 1 -1 -1.836970e-16 563.5 -83.5)" class="st22" width="16" height="233"/>
	<circle class="st23" cx="230" cy="275" r="10"/>
	<rect x="245" y="265" class="st23" width="34" height="3.6"/>
	<rect x="245" y="273.2" class="st23" width="34" height="3.6"/>
	<rect x="245" y="281.4" class="st23" width="34" height="3.6"/>
	<rect x="300" y="265" class="st23" width="8" height="3.6"/>
	<rect x="300" y="273.2" class="st23" width="8" height="3.6"/>
	<rect x="300" y="281.4" class="st23" width="8" height="3.6"/>
	<rect x="313" y="265" class="st23" width="8" height="3.6"/>
	<rect x="313" y="273.2" class="st23" width="8" height="3.6"/>
	<rect x="313" y="281.4" class="st23" width="8" height="3.6"/>
	<rect x="326" y="265" class="st23" width="8" height="3.6"/>
	<rect x="326" y="273.2" class="st23" width="8" height="3.6"/>
	<rect x="326" y="281.4" class="st23" width="8" height="3.6"/>
	<path class="st24" d="M378,288c8.6,0,8.6-18.3,19.6-18.3c7.3,0,4.9,9.1,12.2,9.1c7.3,0,9.8-14.9,23.2-14.9"/>
	<path class="st25" d="M218,348c9,0,6-15,21-15s17,19,33,19s9-9,30-9s20-10,38-10s23-8,44-8s22,18,46,18"/>
	<path class="st25" d="M430,342c-9,0-6-15-21-15s-17,19-33,19s-9-9-30-9s-20-10-38-10s-23-8-44-8s-22,18-46,18"/>
	<rect x="425" y="363" class="st22" width="5" height="5"/>
	<rect x="417" y="363" class="st22" width="5" height="5"/>
	<rect x="409" y="363" class="st22" width="5" height="5"/>
	<rect x="401" y="363" class="st22" width="5" height="5"/>
	<rect x="393" y="363" class="st22" width="5" height="5"/>
	<g>
		<path class="st26" d="M220,363.9L220,363.9l-0.8,0.4l-0.1-0.5l1-0.5h0.5v4.6H220V363.9z"/>
		<path class="st26" d="M225.3,365.6c0,1.6-0.6,2.4-1.6,2.4c-0.9,0-1.5-0.8-1.5-2.4c0-1.5,0.7-2.4,1.6-2.4
			C224.8,363.2,225.3,364.1,225.3,365.6z M222.8,365.6c0,1.2,0.4,1.9,0.9,1.9c0.6,0,0.9-0.7,0.9-1.9c0-1.1-0.3-1.9-0.9-1.9
			C223.2,363.7,222.8,364.4,222.8,365.6z"/>
		<path class="st26" d="M227.2,363.9L227.2,363.9l-0.8,0.4l-0.1-0.5l1-0.5h0.5v4.6h-0.6V363.9z"/>
		<path class="st26" d="M232.6,365.6c0,1.6-0.6,2.4-1.6,2.4c-0.9,0-1.5-0.8-1.5-2.4c0-1.5,0.7-2.4,1.6-2.4
			C232,363.2,232.6,364.1,232.6,365.6z M230.1,365.6c0,1.2,0.4,1.9,0.9,1.9c0.6,0,0.9-0.7,0.9-1.9c0-1.1-0.3-1.9-0.9-1.9
			C230.5,363.7,230.1,364.4,230.1,365.6z"/>
		<path class="st26" d="M234.5,363.9L234.5,363.9l-0.8,0.4l-0.1-0.5l1-0.5h0.5v4.6h-0.6V363.9z"/>
		<path class="st26" d="M239.8,365.6c0,1.6-0.6,2.4-1.6,2.4c-0.9,0-1.5-0.8-1.5-2.4c0-1.5,0.7-2.4,1.6-2.4
			C239.2,363.2,239.8,364.1,239.8,365.6z M237.3,365.6c0,1.2,0.4,1.9,0.9,1.9c0.6,0,0.9-0.7,0.9-1.9c0-1.1-0.3-1.9-0.9-1.9
			C237.7,363.7,237.3,364.4,237.3,365.6z"/>
		<path class="st26" d="M241.7,363.9L241.7,363.9l-0.8,0.4l-0.1-0.5l1-0.5h0.5v4.6h-0.6V363.9z"/>
	</g>
</g>
<g>
	<path class="st22" d="M189,296.7v160.6c0,6.6-5.4,12-12,12H80.3c-6.6,0-12-5.4-12-12V296.7c0-6.6,5.4-12,12-12H177
		C183.6,284.7,189,290.1,189,296.7z"/>
	<circle class="st23" cx="128.6" cy="462.8" r="3.6"/>
	<path class="st12" d="M73.6,446.8c0,4,3.2,7.2,7.2,7.2h96.1c4,0,7.2-3.2,7.2-7.2V305H73.6V446.8z"/>
	<circle class="st2" cx="84" cy="443" r="4"/>
	<path class="st2" d="M175,447H98c-2.2,0-4-1.8-4-4l0,0c0-2.2,1.8-4,4-4h77c2.2,0,4,1.8,4,4l0,0C179,445.2,177.2,447,175,447z"/>
	<g>
		<g>
			<path class="st22" d="M158,350H84c-2.2,0-4-1.8-4-4v-22c0-2.2,1.8-4,4-4h74c2.2,0,4,1.8,4,4v22C162,348.2,160.2,350,158,350z"/>
			<circle class="st23" cx="86.6" cy="326.5" r="2.5"/>
			<circle class="st23" cx="92.5" cy="326.5" r="2.5"/>
			<circle class="st23" cx="98.4" cy="326.5" r="2.5"/>
		</g>
	</g>
	<g>
		<g>
			<g>
				<path class="st2" d="M101,386h74c2.2,0,4-1.8,4-4v-22c0-2.2-1.8-4-4-4h-74c-2.2,0-4,1.8-4,4v22C97,384.2,98.8,386,101,386z"/>
			</g>
			<circle class="st23" cx="172.4" cy="362.5" r="2.5"/>
			<circle class="st23" cx="166.5" cy="362.5" r="2.5"/>
			<circle class="st23" cx="160.6" cy="362.5" r="2.5"/>
		</g>
	</g>
	<g>
		<g>
			<path class="st22" d="M158,422H84c-2.2,0-4-1.8-4-4v-22c0-2.2,1.8-4,4-4h74c2.2,0,4,1.8,4,4v22C162,420.2,160.2,422,158,422z"/>
			<circle class="st23" cx="86.6" cy="398.5" r="2.5"/>
			<circle class="st23" cx="92.5" cy="398.5" r="2.5"/>
			<circle class="st23" cx="98.4" cy="398.5" r="2.5"/>
		</g>
	</g>
	<path class="st27" d="M176.9,290H80.8c-4,0-7.2,3.6-7.2,8.1v9.9h110.5v-9.9C184.1,293.6,180.8,290,176.9,290z"/>
	<path class="st23" d="M176.9,289H80.8c-4,0-7.2,3.2-7.2,7.2v8.8h110.5v-8.8C184.1,292.2,180.8,289,176.9,289z"/>
	<rect x="147" y="324" class="st23" width="11" height="11"/>
	<rect x="101" y="360" class="st23" width="11" height="11"/>
	<rect x="147" y="396" class="st23" width="11" height="11"/>
	<path class="st2" d="M177.5,300h-81c-1.9,0-3.5-1.6-3.5-3.5l0,0c0-1.9,1.6-3.5,3.5-3.5h81c1.9,0,3.5,1.6,3.5,3.5l0,0
		C181,298.4,179.4,300,177.5,300z"/>
	<path class="st22" d="M85.6,300h-5.3c-1.3,0-2.4-1.1-2.4-2.4v-2.3c0-1.3,1.1-2.4,2.4-2.4h5.3c1.3,0,2.4,1.1,2.4,2.4v2.3
		C88,298.9,86.9,300,85.6,300z"/>
</g>
<g>
	<path class="st22" d="M227.2,357.4v106.8c0,2.8-2.3,5-5,5h-43.6c-2.8,0-5-2.3-5-5V357.4c0-2.8,2.3-5,5-5h43.6
		C225,352.4,227.2,354.7,227.2,357.4z"/>
	<path class="st12" d="M224,360.6v93.8c0,2.8-2.3,5.1-5.1,5.1h-36.9c-2.8,0-5.1-2.3-5.1-5.1v-93.8c0-2.8,2.3-5.1,5.1-5.1h36.9
		C221.7,355.5,224,357.8,224,360.6z"/>
	<circle class="st23" cx="200.4" cy="465.1" r="2.3"/>
	<path class="st28" d="M222,416c-1.8,0-1.2-15-4.2-15c-3,0-3.4,19-6.5,19c-3.2,0-1.8-9-5.9-9s-4-10-7.5-10c-3.6,0-4.6-8-8.7-8
		s-4.4,18-9.1,18"/>
	<path class="st29" d="M180,406.5c1.8,0,1.2-15,4.2-15s3.4,19,6.5,19c3.2,0,1.8-9,5.9-9s4-10,7.5-10c3.6,0,4.6-8,8.7-8
		c4.2,0,4.4,18,9.1,18"/>
	<path class="st22" d="M196.9,456h-14.8c-1.2,0-2.1-1-2.1-2.1v-5.8c0-1.2,1-2.1,2.1-2.1h14.8c1.2,0,2.1,1,2.1,2.1v5.8
		C199,455,198,456,196.9,456z"/>
	<path class="st28" d="M218.9,456h-14.8c-1.2,0-2.1-1-2.1-2.1v-5.8c0-1.2,1-2.1,2.1-2.1h14.8c1.2,0,2.1,1,2.1,2.1v5.8
		C221,455,220,456,218.9,456z"/>
	<rect x="181" y="361" class="st22" width="3" height="3"/>
	<rect x="185" y="361" class="st22" width="3" height="3"/>
	<rect x="189" y="361" class="st22" width="3" height="3"/>
	<g>
		<path class="st22" d="M215.9,374L215.9,374l-0.5,0.3l-0.1-0.3l0.7-0.4h0.3v3h-0.4V374z"/>
		<path class="st22" d="M219.4,375.1c0,1-0.4,1.6-1.1,1.6c-0.6,0-1-0.6-1-1.6c0-1,0.4-1.6,1.1-1.6
			C219.1,373.6,219.4,374.1,219.4,375.1z M217.8,375.1c0,0.8,0.2,1.2,0.6,1.2c0.4,0,0.6-0.5,0.6-1.3c0-0.7-0.2-1.2-0.6-1.2
			C218.1,373.9,217.8,374.3,217.8,375.1z"/>
		<path class="st22" d="M221.8,375.1c0,1-0.4,1.6-1.1,1.6c-0.6,0-1-0.6-1-1.6c0-1,0.4-1.6,1.1-1.6
			C221.5,373.6,221.8,374.1,221.8,375.1z M220.2,375.1c0,0.8,0.2,1.2,0.6,1.2c0.4,0,0.6-0.5,0.6-1.3c0-0.7-0.2-1.2-0.6-1.2
			C220.4,373.9,220.2,374.3,220.2,375.1z"/>
	</g>
	<line class="st30" x1="178" y1="380" x2="223" y2="380"/>
	<line class="st31" x1="178" y1="427.5" x2="223" y2="427.5"/>
</g>
<g>
	<path class="st32" d="M384.1,73.9L370.2,60c-4.7-4.7-4.7-12.3,0-17l13.9-13.9c4.7-4.7,12.3-4.7,17,0L415,43c4.7,4.7,4.7,12.3,0,17
		l-13.9,13.9C396.4,78.6,388.8,78.6,384.1,73.9z"/>
	<path class="st33" d="M384.1,89.9L370.2,76c-4.7-4.7-4.7-12.3,0-17l13.9-13.9c4.7-4.7,12.3-4.7,17,0L415,59c4.7,4.7,4.7,12.3,0,17
		l-13.9,13.9C396.4,94.6,388.8,94.6,384.1,89.9z"/>
	<path class="st34" d="M384.1,105.9L370.2,92c-4.7-4.7-4.7-12.3,0-17l13.9-13.9c4.7-4.7,12.3-4.7,17,0L415,75c4.7,4.7,4.7,12.3,0,17
		l-13.9,13.9C396.4,110.6,388.8,110.6,384.1,105.9z"/>
</g>
<g>
	
		<ellipse transform="matrix(0.7071 -0.7071 0.7071 0.7071 -180.9349 456.3127)" class="st2" cx="460.4" cy="446.6" rx="2.6" ry="2.6"/>
	<line class="st35" x1="459.9" y1="447" x2="456.3" y2="450.6"/>
	<path class="st22" d="M460.4,450.8c0.1-0.1,0.1-0.2,0.1-0.4c0-0.4-0.3-0.6-0.6-0.6h-6.4c-0.4,0-0.6,0.3-0.6,0.6
		c0,0.1,0.1,0.3,0.1,0.4c-8.6,1.7-15,9.2-15.2,18.2h37.8C475.4,460,468.9,452.5,460.4,450.8z"/>
</g>
<g>
	<circle class="st22" cx="368.4" cy="464.5" r="6.5"/>
	<circle class="st2" cx="368.4" cy="464.5" r="3.3"/>
	<path class="st2" d="M373.3,433.7v4.8H370c-7.2,0-13,5.8-13,13c0,7.1,0,13,0,13h3.3c0-4.5,3.6-8.1,8.1-8.1s8.1,3.6,8.1,8.1h1.6
		h22.8c0-4.5,3.6-8.1,8.1-8.1s8.1,3.6,8.1,8.1h4.9v-30.8H373.3z"/>
	<circle class="st22" cx="409" cy="464.5" r="6.5"/>
	<circle class="st2" cx="409" cy="464.5" r="3.3"/>
	<path class="st22" d="M368.4,440.1c0,0-9.8,1.6-9.8,9.8h9.8V440.1z"/>
	<rect x="370" y="440.1" class="st22" width="1.6" height="9.8"/>
	<path class="st22" d="M358.6,451.5h4.9v1.6c0,0-4.9,0-4.9,3.3"/>
	<polygon class="st22" points="374.9,435.3 420.4,435.3 420.4,454.8 417.1,454.8 399.3,454.8 374.9,454.8 	"/>
</g>
<g>
</g>
<g>
</g>
<g>
</g>
<g>
</g>
<g>
</g>
<g>
</g>
<g>
</g>
<g>
</g>
<g>
</g>
<g>
</g>
<g>
</g>
<g>
</g>
<g>
</g>
<g>
</g>
<g>
</g>
</svg>
