<?xml version="1.0" encoding="utf-8"?>
<!-- Generator: Adobe Illustrator 21.0.0, SVG Export Plug-In . SVG Version: 6.00 Build 0)  -->
<svg version="1.1" id="Objects" xmlns="http://www.w3.org/2000/svg" xmlns:xlink="http://www.w3.org/1999/xlink" x="0px" y="0px"
	 viewBox="0 0 558.7 528.1" style="enable-background:new 0 0 558.7 528.1;" xml:space="preserve">
<style type="text/css">
	.st0{fill:#ECF3FF;}
	.st1{fill:#FBC7DA;}
	.st2{fill:#ED1666;}
	.st3{fill:#5193F4;}
	.st4{fill:none;stroke:#0B43A4;stroke-linecap:round;stroke-linejoin:round;stroke-miterlimit:10;}
	.st5{fill:#00AD9F;}
	.st6{fill:none;stroke:#00AD9F;stroke-linecap:round;stroke-linejoin:round;stroke-miterlimit:10;}
	.st7{fill:#0056EC;}
	.st8{fill:#52D2BC;}
	.st9{opacity:0.2;fill:#5275A0;}
	.st10{fill:#7EE8D4;}
	.st11{fill:#4A49CA;}
	.st12{fill:none;stroke:#F27EAE;stroke-width:4;stroke-miterlimit:10;}
	.st13{fill:#B2104D;}
	.st14{fill:#F14585;}
	.st15{fill:#F473A3;}
	.st16{fill:#EF3A84;}
	.st17{fill:#F8A2C2;}
	.st18{opacity:0.75;}
	.st19{fill:#BEBEBE;}
	.st20{fill:#770B33;}
	.st21{fill:none;stroke:#BEBEBE;stroke-width:0.25;stroke-miterlimit:10;}
	.st22{fill:none;stroke:#BEBEBE;stroke-width:0.5;stroke-miterlimit:10;}
	.st23{fill:none;stroke:#BEBEBE;stroke-width:0.75;stroke-miterlimit:10;}
	.st24{fill:none;stroke:#B2104D;stroke-width:0.25;stroke-miterlimit:10;}
	.st25{fill:none;stroke:#B2104D;stroke-width:0.5;stroke-miterlimit:10;}
	.st26{fill:none;stroke:#B2104D;stroke-width:0.75;stroke-miterlimit:10;}
	.st27{fill:#FFFFFF;}
	.st28{opacity:0.25;fill:#B2104D;}
	.st29{opacity:0.25;}
</style>
<g>
	<g>
		<g>
			<path class="st0" d="M131.6,118.9c15.6,1,22.2-9.6,29.5-23.3c20.1-37.5,64.8-33.9,79.8-10.8c10.6,16.4,33.6,13,52.1,6.6
				c18.3-6.3,49.4-12.4,74.1-4.8c21.6,6.6,30.5,30.3,50.2,28.8c43-3.2,64.7,39.3,56.9,57.8c-5.1,12.1-7.6,25.6-3.5,38.1
				c4.6,13.7,15,24.6,23.4,36.3c8.4,11.8,15.2,26.5,11,40.3c-3.6,11.8-14.2,20-20.9,30.5c-20.6,32.5-0.2,82.2-27.6,109.3
				c-19.6,19.4-51.6,14.9-79.1,18.6c-22.9,3.1-44.4,12.7-67.2,16.5c-46.1,7.6-92.8-9.2-139.5-9.6c-16.5-0.2-33.3,1.7-49.2-2.4
				c-21.3-5.4-39.4-21.8-46.8-42.3c-10.2-28.3-0.5-61.1-12.1-88.9C53.5,296.9,30.5,278.4,32,254c0.9-15.2,11.3-27.9,18.4-41.4
				C61,192.5,47,113.2,131.6,118.9z M267.8,82.1c-4.1,0-7.4,2.5-7.4,5.7s3.3,5.4,7.4,5.7c13.3,0.9,13.3-4.5,13.3-7.7
				C281.1,80.8,271.9,82.1,267.8,82.1z M403.4,106.4c3.6,2.9,8.1,4.7,12.8,5c1.2,0.1,2.6,0,3.5-0.8c1.2-1,1.3-3,0.3-4.1
				c-0.7-0.7-1.6-1-2.5-1.4c-1.5-0.6-3-1.5-3.9-2.9c-0.3-0.4-0.5-0.9-0.9-1.1C410.1,99.7,398.7,102.5,403.4,106.4z M426.1,111.4
				c1.2,0.4,2.5,0,3.6-0.4c0.8-0.2,1.7-0.8,1.5-1.6c-0.1-0.4-0.4-0.6-0.8-0.8c-1.6-0.8-3.6-1.4-5.1-0.4
				C423.8,109.4,424.9,111,426.1,111.4z M480.4,218.7c0.2,1.8,1.3,3.3,2.4,4.7c2,2.8,4.1,5.6,6.8,7.8c1.1,0.9,2.5,1.7,3.9,1.8
				c1.3,0,2.6-0.6,3.7-1.3c2.6-1.9,4.4-4.9,4.8-8.1c0.5-4.4-1.5-8.7-3.9-12.4c-1.5-2.3-3.2-4.6-5.7-5.9c-4.1-2.1-6.9-0.3-8,3.4
				C483.3,212,480,215,480.4,218.7z M40,321.2c-2.2,1.9-0.2,7.5,0.4,11.2c0.2,1.1,0.5,2.3,1.2,3.2c1,1.2,2.6,1.7,4.1,2.1
				c2.7,0.8,5.9,1.4,7.9-0.4c1.5-1.4,1.7-3.6,1.7-5.7c0-1.9-0.1-3.7-0.3-5.6c-0.1-0.9-0.2-1.8-0.7-2.6c-0.6-1-1.7-1.5-2.7-2
				C47.7,319.9,42.2,319.3,40,321.2z M173.2,462c-1.3,0.3-2.8,0.8-3,2.1c-0.2,1.1,0.7,2,1.6,2.6c7.1,5.3,16.7,5.6,25.6,5.8
				c1,0,2.1,0,3.1-0.4c1.9-0.8,2.8-3.3,1.9-5.2c-0.3-0.7-0.8-1.2-1.4-1.8C193.9,458.2,182.1,460.2,173.2,462z M350.9,458.4
				c-8,5.9,0.1,11.1,10.2,7.2c5.5-2.1,10.7-4.2,16.3-5.6c1.8-0.5,12.7-2.8,12.7-5.3c0-6.5-12.3-5-20.1-3.9
				C363.9,451.8,357.5,453.5,350.9,458.4z"/>
		</g>
	</g>
	<g>
		
			<ellipse transform="matrix(0.9501 -0.3119 0.3119 0.9501 -40.2944 128.288)" class="st1" cx="380.9" cy="190.1" rx="3.9" ry="3.9"/>
		
			<ellipse transform="matrix(0.9501 -0.3119 0.3119 0.9501 -33.972 128.1784)" class="st1" cx="383.7" cy="170.3" rx="1.7" ry="1.7"/>
		
			<ellipse transform="matrix(0.9501 -0.3119 0.3119 0.9501 -35.5023 125.7448)" class="st1" cx="375.4" cy="173.9" rx="2.1" ry="2.1"/>
	</g>
	<g>
		
			<ellipse transform="matrix(0.9501 -0.3119 0.3119 0.9501 -20.8517 72.7678)" class="st1" cx="217.1" cy="101.6" rx="3.9" ry="3.9"/>
		
			<ellipse transform="matrix(0.9501 -0.3119 0.3119 0.9501 -19.2969 77.0331)" class="st1" cx="231.2" cy="98.8" rx="1.7" ry="1.7"/>
		
			<ellipse transform="matrix(0.9501 -0.3119 0.3119 0.9501 -16.8675 75.4997)" class="st1" cx="227.6" cy="90.5" rx="2.1" ry="2.1"/>
	</g>
	<g>
		
			<ellipse transform="matrix(0.9501 -0.3119 0.3119 0.9501 -34.294 88.5223)" class="st1" cx="259.6" cy="151.5" rx="3.9" ry="3.9"/>
		
			<ellipse transform="matrix(0.9501 -0.3119 0.3119 0.9501 -32.7391 92.7876)" class="st1" cx="273.7" cy="148.7" rx="1.7" ry="1.7"/>
		
			<ellipse transform="matrix(0.9501 -0.3119 0.3119 0.9501 -30.3094 91.2535)" class="st1" cx="270.1" cy="140.4" rx="2.1" ry="2.1"/>
	</g>
	<g>
		
			<ellipse transform="matrix(0.9501 -0.3119 0.3119 0.9501 -24.4195 166.1678)" class="st1" cx="507.3" cy="159.4" rx="3.9" ry="3.9"/>
		
			<ellipse transform="matrix(0.9501 -0.3119 0.3119 0.9501 -22.8647 170.4329)" class="st1" cx="521.4" cy="156.7" rx="1.7" ry="1.7"/>
		
			<ellipse transform="matrix(0.9501 -0.3119 0.3119 0.9501 -20.4357 168.8963)" class="st1" cx="517.8" cy="148.3" rx="2.1" ry="2.1"/>
	</g>
	<g>
		
			<ellipse transform="matrix(0.9501 -0.3119 0.3119 0.9501 -43.3663 51.4709)" class="st1" cx="139.2" cy="161.3" rx="3.9" ry="3.9"/>
		
			<ellipse transform="matrix(0.9501 -0.3119 0.3119 0.9501 -41.8114 55.7362)" class="st1" cx="153.3" cy="158.6" rx="1.7" ry="1.7"/>
		
			<ellipse transform="matrix(0.9501 -0.3119 0.3119 0.9501 -39.3811 54.2033)" class="st1" cx="149.8" cy="150.2" rx="2.1" ry="2.1"/>
	</g>
	<g>
		<ellipse transform="matrix(0.7267 -0.687 0.687 0.7267 63.5659 331.1414)" class="st1" cx="447.9" cy="85.7" rx="3.9" ry="3.9"/>
		<ellipse transform="matrix(0.7267 -0.687 0.687 0.7267 54.5667 325.4871)" class="st1" cx="436.3" cy="94.2" rx="1.7" ry="1.7"/>
		<ellipse transform="matrix(0.7267 -0.687 0.687 0.7267 52.2706 331.8011)" class="st1" cx="443.1" cy="100.2" rx="2.1" ry="2.1"/>
	</g>
	<path class="st2" d="M499.6,485.5H43c-6.4,0-11.5-4.1-11.5-9.2l0,0c0-5.1,5.2-9.2,11.5-9.2h456.7c6.4,0,11.5,4.1,11.5,9.2l0,0
		C511.2,481.4,506,485.5,499.6,485.5z"/>
	<g>
		<g>
			<path class="st3" d="M96.1,221.2c-0.3,4.2-0.9,8.3-1.8,12.3c-1.9,8.8-4.9,17.4-7.9,25.9c-1.6,4.4-8.8,15.1-13,17.4
				c-0.6-11.1-1.9-24-4.4-34.9c-2.3-10.6,0.7-19.1-4.6-28.6c-0.7-1.2-1.4-2.4-2-3.6c-2.6-4.5-5.1-9-6.3-14.1
				c-1.5-6.4-0.3-13.9,5-17.9c3.8-2.8,9-3.3,13.5-1.8s8.3,4.6,11.3,8.2C94.3,194.1,97.1,208,96.1,221.2z"/>
			<path class="st4" d="M72.9,187.5c9.4,10.8,11.6,24.2,13.8,38.4c2.2,14.1,0.3,28.9-5.5,42"/>
		</g>
		<g>
			<path class="st5" d="M94.8,401.9c-6.3-4.5-12.7-9.1-17.6-15C73,381.7,69.9,375.6,66,370c-2.5-3.6-5.3-7-7-11
				c-1.6-4-1.9-9,0.8-12.5c2.7-3.6,8-4.7,12.4-3.4c4.4,1.3,7.9,4.5,10.8,8c3.8,4.7,6.5,10.2,8.1,16.1c1.4,5.3,1.7,10.8,3.1,16.1
				c1.3,4.9,3.5,9.6,6.1,13.9c2.4,4,8,10.9,9.7,15C106.7,414.4,97.5,403.8,94.8,401.9z"/>
			<path class="st6" d="M69.2,351.1c5.7,1.8,8.6,8.1,10.3,13.9c2,6.6,2.5,13.8,6.2,19.6c7,10.9,15.8,23.1,21.8,26.4"/>
		</g>
		<g>
			<path class="st7" d="M64.8,389.2c-5-1.4-11.5-1.5-14.1,2.9c-2.2,3.7-0.4,8.5,1.8,12.2c1.8,3.2,4.1,6.3,7.4,7.8
				c2.3,1,4.9,1.1,7.4,1.1c7,0.1,13.9-0.2,20.9-1c8-0.9,18.1,1.4,25.3,5.7C103.3,403.1,81.6,393.8,64.8,389.2z"/>
			<path class="st4" d="M57.5,400.3c6.1-0.4,12.3-0.6,18.3,0.5c6.2,1.1,30.3,9.3,34.3,13.4"/>
		</g>
		<g>
			<path class="st8" d="M113.6,351.2c-7.2-9.1-18.6-14.8-30.2-15.1c-8.6-0.3-17.1,2.2-25.7,1.3c-9-0.9-17.5-5.8-22.9-13
				c-5.4-7.2-7.6-16.8-5.9-25.6c1.3-6.7,5.1-13.4,11.4-16.2c3.4-1.5,7.3-1.8,11-1.3c3.4,0.5,6.7,1.5,9.7,3c7,3.5,12.9,9.3,17.6,15.6
				c4.2,5.8,14.1,14.4,20.8,20c3.9,3.3,6.8,5.5,6.8,5.5C110.9,330.2,110.5,345.3,113.6,351.2z"/>
			<path class="st6" d="M40.4,301.7c21.3,7.1,44.8,16.8,61,32.3"/>
		</g>
		<g>
			<path class="st9" d="M103.1,331.5c0,0-32.9-21.4-42-47.2c7,3.5,12.9,9.3,17.6,15.6c4.2,5.8,14.1,14.4,20.8,20
				C100.5,323.2,101.7,327,103.1,331.5z"/>
			<path class="st9" d="M94.3,233.5c-1.9,8.8-4.9,17.4-7.9,25.9c-1.6,4.4-8.8,15.1-13,17.4c-0.6-11.1-1.9-24-4.4-34.9
				c-2.3-10.6,0.7-19.1-4.6-28.6c-0.7-1.2-1.4-2.4-2-3.6c0.4,0.1,0.8,0.2,1.2,0.3c7.2,2.2,11.2,9.2,12.5,16.3
				c1.1,5.8,0.7,11.8,0.5,17.7c-0.1,2.7-0.1,5.5,0.8,8.1c0,0,0,0.1,0,0.1c1.1,3.1,5.6,2.4,5.9-0.8l0.8-10c0.2-3,0.5-6.1,2.7-8.4
				c0.9-0.9,2-1.5,3.3-1.6C92,231.1,93.3,232.1,94.3,233.5z"/>
			<path class="st10" d="M102.5,325.3c-7.4-24.5-10.3-28.1-8.9-34.6c1.9-8.3-0.5-16.2,1.2-24.5s2.5-17.1-0.4-25.1
				c-0.9-2.5-2.5-5.2-5.6-5c-1.2,0.1-2.4,0.7-3.3,1.6c-2.2,2.3-2.5,5.4-2.7,8.4l-0.8,10c-0.3,3.2-4.8,3.9-5.9,0.8c0,0,0-0.1,0-0.1
				c-0.9-2.6-0.8-5.4-0.8-8.1c0.2-5.9,0.6-11.9-0.5-17.7c-1.3-7-5.3-14-12.5-16.3c-2.6-0.8-5.4-0.7-7.9,0.2c-7,2.6-8.2,9.9-6.5,15.8
				c1.2,4.2,3.6,7.9,5.8,11.6c5.4,9.1,3.1,18.2,4.8,28.6C63.3,299.8,102.5,325.3,102.5,325.3z"/>
			<path class="st6" d="M59.2,222.2c5.4,17.4,10.9,35,19.5,51c2.5,4.7,4.2,11.1,17.3,23.3"/>
		</g>
		<g>
			<path class="st11" d="M62.5,165.2c1.1-0.2,8.1-6.6,10.9-8.8c0.8-0.6,1.6-1.3,2-2.1c0.5-0.9,0.6-2,0.1-2.8
				c-0.6-1.1-1.6-2.1-3.8-1.8c-3.8,0.4-5,1.8-6.6,3.9C59.7,160.4,62.5,165.2,62.5,165.2z"/>
			<path class="st11" d="M99.1,184.4c3.5,1.1,7.2,2.3,10.7,1.4c1.4-0.3,2.8-1.1,3.2-2.5c0.3-1.2-0.4-2.4-1.4-3.1
				c-1-0.7-2.2-1-3.4-1.1c-4.5-0.6-10.7,0.6-14.9,2.3C93.3,181.4,97,183.7,99.1,184.4z"/>
			<path class="st11" d="M115.8,133.1c-1.6-0.8-3.3-1.9-3.5-3.6c-0.2-1.8,1.5-3.3,3.3-3.5s3.5,0.6,4.9,1.6c6.1,4.3,6,10,6,10
				S117.6,134,115.8,133.1z"/>
			<path class="st11" d="M118.7,117.7c-1.4-0.4-2.8-1-3.7-2.1c-0.4-0.5-0.7-1.3-0.6-1.9c0.3-1.1,0.8-2.2,3.6-2
				c8.8,0.7,11.3,6.4,11.3,6.4S121.1,118.5,118.7,117.7z"/>
			<path class="st11" d="M145.4,128.2c3.4-0.7,6.9-2.8,8.8-5.7c0.7-1.1,1.4-2.3,1.5-3.6c0.1-1.3-0.3-2.8-1.4-3.5
				c-1.3-0.9-3.2-0.6-4.5,0.5c-1.2,1-2,2.6-2.5,4.1C146.6,121.9,145.4,128.2,145.4,128.2z"/>
			<path class="st4" d="M96.6,261.5c-9.2-6.5-18.4-13.1-27.6-19.6c-4.9-3.5-9.9-7.1-13.3-12.1c-7.3-10.7-5.3-25.7,1.9-36.5
				c7.2-10.7,18.7-17.8,30.4-23.3c11.7-5.5,24-9.8,35-16.6c6.9-4.3,13.6-10.3,14.8-18.3c0.7-4.8-0.8-9.9-4.1-13.6
				c-3.3-3.6-8.2-5.7-13.1-5.5"/>
			<path class="st4" d="M150.5,119.5c-1.6,7.3-10.1,12.5-13.5,19.1"/>
			<path class="st4" d="M119.2,131c2,1.7,4.2,3,6,4.9c3.7,4,4.7,11,0.4,15.9"/>
			<path class="st4" d="M77.9,175.3c8,5,18.2,7.7,27.6,7.1"/>
			<path class="st4" d="M62,187.5c-4.5-9.7-2-22.2,5.8-29.5"/>
		</g>
	</g>
	<g>
		<g>
			<path class="st8" d="M468.4,294.8c5.8-9.5,2.8-21.7,4.8-32.7c1.5-8.4,6.2-16.2,12.9-21.5c4.2-3.3,10.1-5.7,14.9-3.2
				c1,0.5,2.3,1.3,3.2,0.7c0.6-0.4,0.8-1.1,1-1.8c1.2-5.9-1.6-12.4,0.7-17.9c1.2-3,3.8-5.2,6.6-7c5.3-3.4,11.5-5.3,17.7-5.6
				c1.7-0.1,3.4,0,4.9,0.7c2.7,1.3,3.9,4.7,3.6,7.7c-0.4,3-2,5.6-3.8,8c-6.1,7.9-15,14.8-16.1,24.7c-0.1,1.3-0.1,2.6,0.4,3.7
				c0.6,1.1,1.6,1.9,2.2,2.9c1.9,3.4-1.7,7.3-5.3,9c-3.2,1.5-6.7,2.5-10.3,2.8c-2.4,0.2-5.2,0.3-6.9,2.1c-3.1,3.3,0.5,8.7-0.2,13.2
				c-0.4,2.8-2.4,5.1-4.5,7c-3.8,3.6-7.9,6.9-12.4,9.7c-3.6,2.3-7.4,4.3-10.6,7.2c-3.2,2.8-5.8,6.7-6,10.9"/>
			<path class="st6" d="M476,285.6c0.9-4.6,3.1-8.9,5.2-13.1c3.3-6.6,6.7-13.2,11.7-18.6c3.8-4.1,8.4-7.3,12.3-11.3
				c2.8-2.9,5.1-6.1,7-9.7c1-1.9,1.9-3.9,3.2-5.6c1.6-2,3.8-3.4,5.7-5.1c2.6-2.3,4.7-5.2,6-8.3"/>
		</g>
		<g>
			<path class="st3" d="M551.3,301.4c-1.3,5-3.2,10-6.5,13.9c-2.3,2.7-5.1,4.9-8.3,6.7c-1.6,0.9-3.3,1.7-5,2.4
				c-6.6,2.8-13.7,4.4-20.9,4.6c-10.4,0.4-21.2-1.9-31.2,1.1c-4.6,1.4-8.8,3.8-12.3,7.1c-2.2,2-4,4.4-5.5,7l1.4-8.7
				c2.5-9.3,5.1-18.8,10.3-27c3.3-5.3,7.6-9.9,12.2-14.1c7.3-6.8,15.5-12.8,24.5-17.1c7.3-3.5,15.3-6,23.4-5c8,1,15.9,6,18.4,13.7
				C553.4,291,552.7,296.4,551.3,301.4z"/>
			<path class="st4" d="M469.8,329c7.7-11.3,19.2-20.1,32.2-24.4c8.1-2.7,16.7-3.7,24.9-6.1c8.2-2.4,16.4-6.4,21.2-13.4"/>
		</g>
		<g>
			<path class="st8" d="M474.9,412.3c0.5-11.7,6.5-22.4,13.8-31.5c6.1-7.6,13.5-14.5,22.6-18c2.8-1.1,6-1.8,8.9-1.1
				c3,0.7,5.6,3.3,5.7,6.3c0,2.6-1.7,4.8-3.5,6.6c-6,6-13.7,9.8-20.9,14.2c-12.4,7.5-24.3,17.6-29.2,31.2"/>
			<path class="st6" d="M479.5,402.1c7.6-17,27.3-32.1,40.3-34"/>
		</g>
		<g>
			<path class="st5" d="M470.1,421.5c-0.1-2,6.3-7.1,7.7-8.4c8-7.2,17.4-12.5,27.4-15.6c4-1.3,8.3-2.2,12.4-1.2c4,1,7.7,4.3,8.1,8.6
				c0.4,4.2-2.5,8.4-6.1,10.4c-3.6,2-7.9,2.4-11.9,2.1c-6.2-0.4-12.4-1.9-18.6-1.9C482.9,415.7,474.1,416.3,470.1,421.5z"/>
			<path class="st6" d="M476.6,415.6c12.8-6.9,32.1-11.4,46.2-9.7"/>
		</g>
		<g>
			<path class="st11" d="M402.9,152.9c-0.4-1.3-0.4-2.8,0.5-3.7c0.7-0.7,2-1.1,2.9-0.7c7.4,3.3,6.6,14.9,6.6,14.9
				S405.9,162.4,402.9,152.9z"/>
			<path class="st11" d="M402.7,174.6c-4.8,8.7,12.3,8,18.4,2.9C421.1,177.5,406.8,167.2,402.7,174.6z"/>
			<path class="st11" d="M424.3,153.6c-1.2-1.6-1.6-4-0.3-5.5c0.9-1.1,2.6-1.5,4-1.2c1.4,0.3,3.6,1.6,4.5,2.7c5.6,7,3,13.8,3,13.8
				S426.2,156.2,424.3,153.6z"/>
			<path class="st11" d="M492.1,175.1c-0.4-1.4-0.3-3,0.7-3.9c0.7-0.6,1.6-0.8,2.5-0.7c0.9,0.1,1.7,0.4,2.6,0.8
				c1.7,0.8,3.1,2.2,3.9,3.9c2.1,4.3,0.7,9.7,0.7,9.7S493.1,178.5,492.1,175.1z"/>
			<path class="st11" d="M470.8,191c-3-2.7-7.6-3.4-11.3-1.8c-0.9,0.4-1.8,1-2.4,1.8c-1.3,1.9-0.9,4.6,0.5,6.4
				c1.4,1.8,3.5,2.9,5.6,3.9c3.8,1.7,9.7,2.1,13.7,3.1C476.9,204.4,476.9,196.4,470.8,191z"/>
			<path class="st4" d="M408.2,154.8c2.5,8.2,9.6,14.4,17.5,17.8c7.9,3.4,16.6,4.2,25.2,4.8c8.6,0.6,17.3,0.8,25.6,3.1
				c8.1,2.2,16.1,6.8,19.6,14.4c4.2,9.3,0.5,20.4-5.4,28.7c-5.9,8.3-13.9,15-19.7,23.4c-2.6,3.9-4.8,8.4-4.3,13.1
				c0.7,6.2,5.9,10.8,10.8,14.7"/>
			<path class="st4" d="M428,151.8c5.7,6.3,10.2,16.1,11.3,24.5"/>
			<path class="st4" d="M408.9,176.1c3.3,0.9,6.5,1.7,9.9,1.7c3.4,0,7.3-1.9,9.7-4.2"/>
			<path class="st4" d="M497.7,175.6c3,2.9,4.9,7.1,5.1,11.3c0.2,4.2-2.2,9.4-5,12.5"/>
			<path class="st4" d="M465.8,194.8c6.1,5.6,11.4,10.1,18.1,14.9c3.1,2.2,9.2,5,11.9,4.2"/>
		</g>
		<g>
			<path class="st9" d="M536.5,322c-1.6,0.9-3.3,1.7-5,2.4c-6.6,2.8-13.7,4.4-20.9,4.6c-10.4,0.4-21.2-1.9-31.2,1.1
				c-4.6,1.4-8.8,3.8-12.3,7.1c-0.3,0.2-0.7,0.4-1,0.6c-0.8-7.1,16.8-16.3,22.1-18.7c9.7-4.3,20.4-6.3,31-5.4
				c4.6,0.4,9.4,1.3,13.2,3.9C534.1,318.8,535.5,320.3,536.5,322z"/>
			<path class="st8" d="M519.3,318c4.6,0.4,9.4,1.3,13.2,3.9s6.5,7.3,5.6,11.9c-1,5.3-6.5,8.8-11.9,9.4c-5.4,0.7-10.7-0.8-16-1.9
				c-11.7-2.4-23.8-3-35.7-1.6c-3,0.3-5.8,0.9-8.4,2.4c-0.8-7.1,16.8-16.3,22.2-18.7C497.9,319.1,508.7,317.2,519.3,318z"/>
			<path class="st6" d="M470.7,337.6c8.8-7.7,31.2-12.9,47.1-11.2c4.8,0.5,9.6,1.9,13.3,5"/>
		</g>
	</g>
	<g>
		<path class="st12" d="M282.4,188.7V169c0-3,2.3-5.4,5.1-5.4l0,0c2.8,0,5.1,2.4,5.1,5.4v37.6"/>
		<path class="st12" d="M282.4,174.4v13.8c0,3-2.3,5.4-5.1,5.4l0,0c-2.8,0-5.1-2.4-5.1-5.4v-19.8"/>
		
			<rect x="269.1" y="165.7" transform="matrix(-1 -1.224647e-16 1.224647e-16 -1 544.3129 336.975)" class="st13" width="6.1" height="5.7"/>
	</g>
	<g>
		<path class="st12" d="M131.8,190.7v-10.7c0-3.7-3-6.7-6.7-6.7l0,0c-3.7,0-6.7,3-6.7,6.7v32.8"/>
		<path class="st12" d="M131.8,186.9v3.3c0,3.7,3,6.7,6.7,6.7l0,0c3.7,0,6.7-3,6.7-6.7v-10.7"/>
		<rect x="141.2" y="175.9" class="st13" width="7.9" height="7"/>
	</g>
	<g>
		<path class="st12" d="M69.1,323.1h8.3c2.9,0,5.2,2.2,5.2,4.9l0,0c0,2.7-2.3,4.9-5.2,4.9H54.4c-1.2,0-2.2,1-2.1,2.2l0.1,2.1"/>
		<path class="st12" d="M72.2,323.1h-2.6c-2.9,0-5.2-2.2-5.2-4.9l0,0c0-2.7,2.3-4.9,5.2-4.9h9.7"/>
		
			<rect x="79.1" y="310.6" transform="matrix(6.123234e-17 -1 1 6.123234e-17 -231.2914 395.3377)" class="st13" width="5.8" height="5.5"/>
	</g>
	<g>
		<path class="st12" d="M357.4,442h8.3c2.9,0,5.2-1.9,5.2-4.2l0,0c0-2.3-2.3-4.2-5.2-4.2h-23.1c-1.2,0-2.2-0.9-2.1-1.9l0.1-1.8"/>
		<path class="st12" d="M360.5,442h-2.6c-2.9,0-5.2,1.9-5.2,4.2l0,0c0,2.3,2.3,4.2,5.2,4.2h9.7"/>
		
			<rect x="367.9" y="447.7" transform="matrix(-1.836970e-16 1 -1 -1.836970e-16 820.7696 80.0913)" class="st13" width="5" height="5.5"/>
	</g>
	<g>
		<rect x="194.4" y="416.5" class="st2" width="84.3" height="39"/>
		<rect x="194.4" y="416.5" class="st13" width="84.3" height="20.1"/>
		<path class="st14" d="M312.6,468.8c-10.4-12.1-25.9-19.8-43.1-19.8h-65.7c-17.2,0-32.7,7.7-43.1,19.8H312.6z"/>
		<path class="st13" d="M372.9,427.6H100.3c-6.5,0-11.7-5.2-11.7-11.7V214c0-6.5,5.2-11.7,11.7-11.7h272.6c6.5,0,11.7,5.2,11.7,11.7
			v202C384.5,422.4,379.3,427.6,372.9,427.6z"/>
		
			<rect x="143.5" y="186.6" transform="matrix(-1.836970e-16 1 -1 -1.836970e-16 551.5181 78.381)" class="st2" width="186.1" height="256.6"/>
		<path class="st14" d="M88.6,382.8v33.6c0,6.2,5,11.2,11.2,11.2h273.6c6.2,0,11.2-5,11.2-11.2v-33.6H88.6z"/>
		<g>
			<rect x="142.8" y="346.3" class="st13" width="19.9" height="7.4"/>
			<rect x="142.8" y="330.1" class="st13" width="19.9" height="7.4"/>
			<rect x="142.8" y="313.9" class="st13" width="19.9" height="7.4"/>
			<rect x="142.8" y="297.8" class="st13" width="19.9" height="7.4"/>
			<rect x="142.8" y="281.6" class="st13" width="19.9" height="7.4"/>
			<rect x="142.8" y="265.4" class="st13" width="19.9" height="7.4"/>
		</g>
		<g>
			<rect x="311.6" y="346.3" class="st13" width="19.9" height="7.4"/>
			<rect x="311.6" y="330.1" class="st13" width="19.9" height="7.4"/>
			<rect x="311.6" y="313.9" class="st13" width="19.9" height="7.4"/>
			<rect x="311.6" y="297.8" class="st13" width="19.9" height="7.4"/>
			<rect x="311.6" y="281.6" class="st13" width="19.9" height="7.4"/>
			<rect x="311.6" y="265.4" class="st13" width="19.9" height="7.4"/>
		</g>
		<g>
			<rect x="151.6" y="233.9" class="st13" width="11.1" height="11.1"/>
			<rect x="171.1" y="233.9" class="st13" width="11.1" height="11.1"/>
			<rect x="190.6" y="233.9" class="st13" width="11.1" height="11.1"/>
			<rect x="210" y="233.9" class="st13" width="11.1" height="11.1"/>
			<rect x="229.5" y="233.9" class="st13" width="11.1" height="11.1"/>
		</g>
		<g>
			<path class="st13" d="M157,354.5V251.6c0-6.6,5.4-12,12-12h136.2c6.6,0,12,5.4,12,12v102.9c0,6.6-5.4,12-12,12H169
				C162.4,366.5,157,361.1,157,354.5z"/>
			<path class="st15" d="M305.2,362.8H169c-4.3,0-7.8-3.5-7.8-7.8V251c0-4.3,3.5-7.8,7.8-7.8h136.3c4.3,0,7.8,3.5,7.8,7.8v104.1
				C313,359.3,309.5,362.8,305.2,362.8z"/>
			<rect x="173.2" y="314.3" class="st13" width="42.4" height="23.8"/>
			<g>
				<g>
					<rect x="214.7" y="253.5" class="st2" width="16" height="2.2"/>
					<rect x="194" y="253.5" class="st2" width="9.7" height="2.2"/>
					<rect x="171.8" y="253.5" class="st2" width="19.3" height="2.2"/>
					<rect x="206.8" y="253.5" class="st2" width="4.2" height="2.2"/>
					<rect x="234.7" y="253.5" class="st2" width="9.7" height="2.2"/>
				</g>
			</g>
			<g>
				<g>
					<rect x="214.7" y="259.9" class="st2" width="6" height="2.2"/>
					<rect x="223" y="259.9" class="st2" width="6" height="2.2"/>
					<rect x="184.1" y="259.9" class="st2" width="9.7" height="2.2"/>
					<rect x="171.8" y="259.9" class="st2" width="9.6" height="2.2"/>
					<rect x="196.5" y="259.9" class="st2" width="16" height="2.2"/>
				</g>
			</g>
			<g>
				<g>
					<rect x="173.4" y="305.1" class="st2" width="11.9" height="3.3"/>
					<rect x="203.7" y="305.1" class="st2" width="11.9" height="3.3"/>
					<rect x="188.5" y="305.1" class="st2" width="11.9" height="3.3"/>
				</g>
			</g>
			<rect x="172.9" y="266.9" class="st2" width="42.4" height="34.6"/>
			<g>
				<rect x="218.5" y="286.8" class="st2" width="83.3" height="15.6"/>
				<rect x="276.7" y="289.1" class="st15" width="22.5" height="11.1"/>
				<rect x="221.5" y="289.8" class="st15" width="52.1" height="2.1"/>
				<rect x="221.5" y="293.6" class="st15" width="52.1" height="2.1"/>
				<rect x="221.5" y="297.4" class="st15" width="35.1" height="2.1"/>
			</g>
			<g>
				<rect x="218.5" y="266.2" class="st2" width="46.7" height="15.6"/>
				<rect x="252.5" y="269.1" class="st15" width="9.7" height="9.7"/>
				<rect x="220.2" y="269.1" class="st15" width="29.2" height="2.1"/>
				<rect x="220.2" y="272.9" class="st15" width="29.2" height="2.1"/>
				<rect x="220.2" y="276.7" class="st15" width="19.7" height="2.1"/>
			</g>
			<g>
				<g>
					<rect x="218.5" y="313.6" class="st2" width="80" height="37.6"/>
					<rect x="218.5" y="313.6" class="st13" width="80" height="6.2"/>
					<rect x="220.4" y="328.6" class="st15" width="46.2" height="3.2"/>
					<rect x="220.4" y="334.3" class="st15" width="41.5" height="3.2"/>
					<rect x="220.4" y="339.9" class="st15" width="28" height="3.2"/>
					<rect x="220.4" y="323.4" class="st15" width="16.7" height="3.2"/>
				</g>
				<g>
					<rect x="271.1" y="323.3" class="st15" width="24.2" height="24.2"/>
					<path class="st13" d="M285.7,335.2c0.4-0.5,0.6-1.1,0.6-1.8v-1.8c0-1.7-1.4-3.1-3.1-3.1c-1.7,0-3.1,1.4-3.1,3.1v1.8
						c0,0.7,0.3,1.4,0.7,1.9c-2.8,1-4.9,3.7-4.8,6.9h15.2C291.2,342.2,290.6,336.6,285.7,335.2z"/>
				</g>
				<g>
					<circle class="st2" cx="222.6" cy="316.8" r="1.6"/>
					<circle class="st2" cx="227.6" cy="316.8" r="1.6"/>
					<circle class="st2" cx="233.5" cy="316.8" r="1.6"/>
				</g>
			</g>
			<rect x="271.3" y="252" class="st2" width="28" height="28"/>
			<polygon class="st13" points="210.8,273 207.6,273 207.6,269.8 205.6,269.8 205.6,273 202.5,273 202.5,275 205.6,275 
				205.6,278.1 207.6,278.1 207.6,275 210.8,275 			"/>
			<path class="st13" d="M181.3,297.4c-2.7,0-4.9-2.2-4.9-4.9c0-2.7,2.2-4.9,4.9-4.9c2.7,0,4.9,2.2,4.9,4.9
				C186.3,295.2,184.1,297.4,181.3,297.4z M181.3,290.1c-1.3,0-2.4,1.1-2.4,2.4c0,1.3,1.1,2.4,2.4,2.4c1.3,0,2.4-1.1,2.4-2.4
				C183.7,291.2,182.6,290.1,181.3,290.1z"/>
			<path class="st13" d="M279.4,264.7c-2.7,0-4.9-2.2-4.9-4.9c0-2.7,2.2-4.9,4.9-4.9c2.7,0,4.9,2.2,4.9,4.9
				C284.4,262.5,282.2,264.7,279.4,264.7z M279.4,257.4c-1.3,0-2.4,1.1-2.4,2.4c0,1.3,1.1,2.4,2.4,2.4c1.3,0,2.4-1.1,2.4-2.4
				C281.8,258.5,280.7,257.4,279.4,257.4z"/>
		</g>
	</g>
	<g>
		<rect x="285" y="458.3" class="st16" width="14.1" height="14.1"/>
		<circle class="st13" cx="292.7" cy="440.8" r="21.5"/>
		<circle class="st2" cx="292.7" cy="440.8" r="15.2"/>
		<path class="st15" d="M280.6,444.4c3.1-2,6.6-3.1,10.4-3.3h0.2c5.2-0.5,10.2,0.4,14.9,2.6c0.4,0.3,0.8,0.5,1.2,0.8
			c0.3-1.2,0.5-2.4,0.5-3.7c0-8.4-6.8-15.2-15.2-15.2c-8.4,0-15.2,6.8-15.2,15.2c0,1.7,0.3,3.2,0.8,4.7
			C279,445.1,279.8,444.7,280.6,444.4z"/>
		<path class="st17" d="M293.2,447.7c0,0,11.7-8.4,8.6-13.5c-3-4.8-8.6,1.3-8.6,1.3s-4.6-6.3-8.2-1.6
			C281.4,438.5,293.2,447.7,293.2,447.7z"/>
	</g>
	<g>
		<g class="st18">
			<path class="st19" d="M132.4,43.3v28.8v28.8H190V43.3H132.4z M165.3,74.5h-7.5v21.3h-5.3V74.5h-7.5v-2.3l0,0v-2.4l10.1,0
				c5.5,0,10.1,0,10.1,0.1c0.1,0,0.1,1.1,0.1,2.4V74.5z M184.8,91.4c-0.9,2.4-3.2,4-6.4,4.6c-1,0.2-3.3,0.1-4.4,0
				c-2.3-0.4-4.5-1.6-5.9-3.1c-0.5-0.6-1.6-2.1-1.5-2.2l0.5-0.3l2.2-1.3l1.6-1l0.4,0.5c0.5,0.7,1.5,1.8,2.2,2.1
				c1.9,1,4.4,0.8,5.6-0.3c0.5-0.5,0.8-1,0.8-1.7c0-0.7-0.1-1-0.4-1.5c-0.5-0.6-1.4-1.2-4-2.3c-3-1.3-4.2-2.1-5.4-3.3
				c-0.7-0.7-1.3-1.9-1.6-2.9c-0.2-0.8-0.3-2.9-0.1-3.7c0.6-2.9,2.8-4.9,5.9-5.5c1-0.2,3.4-0.1,4.4,0.1l0,0c1.5,0.3,2.6,1,3.6,2.1
				c0.5,0.6,1.3,1.6,1.4,1.8c0,0.1-2.5,1.8-4,2.7c-0.1,0-0.3-0.2-0.5-0.6c-0.7-1.1-1.5-1.5-2.7-1.6c-1.7-0.1-2.9,0.8-2.9,2.3
				c0,0.5,0.1,0.7,0.3,1.1c0.4,0.8,1.1,1.3,3.3,2.2c4.1,1.8,5.9,2.9,7,4.6C185.4,86.3,185.7,89.2,184.8,91.4z"/>
		</g>
		<g>
			<g>
				<path class="st15" d="M132.4,39.3v28.8v28.8H190V39.3H132.4z M165.3,70.5h-7.5v21.3h-5.3V70.5h-7.5v-2.3l0,0v-2.4l10.1,0
					c5.5,0,10.1,0,10.1,0.1c0.1,0,0.1,1.1,0.1,2.4V70.5z M184.8,87.4c-0.9,2.4-3.2,4-6.4,4.6c-1,0.2-3.3,0.1-4.4,0
					c-2.3-0.4-4.5-1.6-5.9-3.1c-0.5-0.6-1.6-2.1-1.5-2.2l0.5-0.3l2.2-1.3l1.6-1l0.4,0.5c0.5,0.7,1.5,1.8,2.2,2.1
					c1.9,1,4.4,0.8,5.6-0.3c0.5-0.5,0.8-1,0.8-1.7c0-0.7-0.1-1-0.4-1.5c-0.5-0.6-1.4-1.2-4-2.3c-3-1.3-4.2-2.1-5.4-3.3
					c-0.7-0.7-1.3-1.9-1.6-2.9c-0.2-0.8-0.3-2.9-0.1-3.7c0.6-2.9,2.8-4.9,5.9-5.5c1-0.2,3.4-0.1,4.4,0.1l0,0c1.5,0.3,2.6,1,3.6,2.1
					c0.5,0.6,1.3,1.6,1.4,1.8c0,0.1-2.5,1.8-4,2.7c-0.1,0-0.3-0.2-0.5-0.6c-0.7-1.1-1.5-1.5-2.7-1.6c-1.7-0.1-2.9,0.8-2.9,2.3
					c0,0.5,0.1,0.7,0.3,1.1c0.4,0.8,1.1,1.3,3.3,2.2c4.1,1.8,5.9,2.9,7,4.6C185.4,82.3,185.7,85.2,184.8,87.4z"/>
			</g>
		</g>
	</g>
	<g>
		<g class="st18">
			<path class="st19" d="M374,36v62.3h62.3V36H374z M407.9,84.6c0,6.1-3.6,8.8-8.7,8.8c-4.7,0-7.4-2.4-8.8-5.4l4.8-2.9
				c0.9,1.6,1.8,3,3.8,3c1.9,0,3.1-0.7,3.1-3.7V64.6h5.9V84.6z M421.7,93.4c-5.4,0-8.9-2.6-10.7-6l4.8-2.8c1.3,2.1,2.9,3.6,5.8,3.6
				c2.4,0,4-1.2,4-2.9c0-2-1.6-2.7-4.3-3.9l-1.5-0.6c-4.2-1.8-7-4.1-7-8.8c0-4.4,3.3-7.7,8.6-7.7c3.7,0,6.4,1.3,8.3,4.7l-4.6,2.9
				c-1-1.8-2.1-2.5-3.8-2.5c-1.7,0-2.8,1.1-2.8,2.5c0,1.8,1.1,2.5,3.6,3.6l1.5,0.6c5,2.1,7.8,4.3,7.8,9.2
				C431.4,90.5,427.3,93.4,421.7,93.4z"/>
		</g>
		<g>
			<g>
				<path class="st2" d="M374,32v62.3h62.3V32H374z M407.9,80.6c0,6.1-3.6,8.8-8.7,8.8c-4.7,0-7.4-2.4-8.8-5.4l4.8-2.9
					c0.9,1.6,1.8,3,3.8,3c1.9,0,3.1-0.7,3.1-3.7V60.6h5.9V80.6z M421.7,89.4c-5.4,0-8.9-2.6-10.7-6l4.8-2.8c1.3,2.1,2.9,3.6,5.8,3.6
					c2.4,0,4-1.2,4-2.9c0-2-1.6-2.7-4.3-3.9l-1.5-0.6c-4.2-1.8-7-4.1-7-8.8c0-4.4,3.3-7.7,8.6-7.7c3.7,0,6.4,1.3,8.3,4.7l-4.6,2.9
					c-1-1.8-2.1-2.5-3.8-2.5c-1.7,0-2.8,1.1-2.8,2.5c0,1.8,1.1,2.5,3.6,3.6l1.5,0.6c5,2.1,7.8,4.3,7.8,9.2
					C431.4,86.5,427.3,89.4,421.7,89.4z"/>
			</g>
		</g>
	</g>
	<g>
		<g class="st18">
			<polygon class="st19" points="462.2,160.5 471.1,133.1 453.3,133.1 462.2,160.5 			"/>
			<path class="st19" d="M462.2,160.5l-8.9-27.4h-12.5L462.2,160.5z"/>
			<path class="st19" d="M440.8,133.1l-2.7,8.3c-0.2,0.8,0,1.6,0.7,2.1l23.5,17L440.8,133.1L440.8,133.1z"/>
			<path class="st19" d="M440.8,133.1h12.5l-5.4-16.5c-0.3-0.9-1.5-0.9-1.8,0L440.8,133.1L440.8,133.1z"/>
			<path class="st19" d="M462.2,160.5l8.9-27.4h12.5L462.2,160.5L462.2,160.5z"/>
			<path class="st19" d="M483.6,133.1l2.7,8.3c0.2,0.8,0,1.6-0.7,2.1l-23.5,17L483.6,133.1L483.6,133.1z"/>
			<path class="st19" d="M483.6,133.1h-12.5l5.4-16.5c0.3-0.9,1.5-0.9,1.8,0L483.6,133.1L483.6,133.1z"/>
		</g>
		<g>
			<g>
				<g>
					<polygon class="st20" points="462.2,156.5 471.1,129.1 453.3,129.1 462.2,156.5 					"/>
				</g>
				<path class="st2" d="M462.2,156.5l-8.9-27.4h-12.5L462.2,156.5z"/>
				<path class="st17" d="M440.8,129.1l-2.7,8.3c-0.2,0.8,0,1.6,0.7,2.1l23.5,17L440.8,129.1L440.8,129.1z"/>
				<g>
					<path class="st13" d="M440.8,129.1h12.5l-5.4-16.5c-0.3-0.9-1.5-0.9-1.8,0L440.8,129.1L440.8,129.1z"/>
				</g>
				<path class="st2" d="M462.2,156.5l8.9-27.4h12.5L462.2,156.5L462.2,156.5z"/>
				<path class="st17" d="M483.6,129.1l2.7,8.3c0.2,0.8,0,1.6-0.7,2.1l-23.5,17L483.6,129.1L483.6,129.1z"/>
				<g>
					<path class="st13" d="M483.6,129.1h-12.5l5.4-16.5c0.3-0.9,1.5-0.9,1.8,0L483.6,129.1L483.6,129.1z"/>
				</g>
			</g>
		</g>
	</g>
	<g>
		<g class="st18">
			<path class="st19" d="M236.6,160.6c0,1.2-0.1,2.3-0.2,3.4c0,0.1,0,0.3,0,0.4c-0.1,0.6-0.2,1.3-0.3,1.9c0,0.1,0,0.3-0.1,0.4
				c-2.2,10.9-10.1,19.7-20.5,23.2c-1.6,0.3-2.1-0.7-2.1-1.5c0-1,0-4.3,0-8.5c0-2.9-1-4.8-2.1-5.7c5.3-0.6,10.9-2.3,13.1-8.6
				c0-0.1,0.1-0.3,0.1-0.4c0.1-0.4,0.2-0.8,0.3-1.2c0-0.1,0.1-0.3,0.1-0.4c0.3-1.4,0.4-2.9,0.4-4.6c0-3.4-1.2-6.1-3.2-8.3
				c0.3-0.8,1.4-3.9-0.3-8.2c0,0-2.6-0.8-8.5,3.2c-2.5-0.7-5.1-1-7.7-1c-2.6,0-5.3,0.4-7.7,1c-5.9-4-8.5-3.2-8.5-3.2
				c-1.7,4.3-0.6,7.4-0.3,8.2c-2,2.2-3.2,4.9-3.2,8.3c0,1.7,0.2,3.3,0.4,4.6c0,0.1,0.1,0.3,0.1,0.4c0.1,0.4,0.2,0.8,0.3,1.2
				c0,0.1,0.1,0.3,0.1,0.4c2.2,6.3,7.7,8,13.1,8.6c-0.9,0.8-1.7,2.1-2,4.1c-1.8,0.8-6.2,2.2-9-2.6c0,0-1.6-3-4.7-3.2
				c0,0-3,0-0.2,1.9c0,0,2,0.9,3.4,4.5c0,0,1.8,5.5,10.4,3.6c0,2.6,0,5,0,5.7c0,0.8-0.6,1.8-2.1,1.5c-10.4-3.5-18.3-12.3-20.5-23.2
				l0,0c0-0.1,0-0.2-0.1-0.4c-0.1-0.6-0.2-1.3-0.3-1.9c0-0.1,0-0.3,0-0.4c-0.1-1.1-0.2-2.3-0.2-3.4c0-17,13.8-30.8,30.9-30.8
				S236.6,143.6,236.6,160.6z"/>
			<path class="st19" d="M186.3,173.6c-0.2-0.1-0.5-0.1-0.5,0.1c-0.1,0.2,0,0.4,0.3,0.5c0.2,0.1,0.5,0.1,0.5-0.1
				C186.6,173.9,186.5,173.7,186.3,173.6z"/>
			<path class="st19" d="M187.7,174.8c-0.2-0.2-0.5-0.3-0.6-0.1c-0.2,0.1-0.1,0.4,0.1,0.6s0.5,0.3,0.6,0.1
				C188,175.3,187.9,175,187.7,174.8z"/>
			<path class="st19" d="M189,176.5c-0.2-0.3-0.5-0.4-0.7-0.3c-0.2,0.1-0.2,0.5,0,0.7c0.2,0.3,0.5,0.4,0.7,0.3
				C189.2,177.1,189.2,176.8,189,176.5z"/>
			<path class="st19" d="M190.5,178.2c-0.3-0.3-0.6-0.3-0.8-0.1c-0.2,0.2-0.1,0.5,0.2,0.8c0.3,0.3,0.6,0.3,0.8,0.1
				C190.9,178.8,190.8,178.4,190.5,178.2z"/>
			<path class="st19" d="M192.5,179.3c-0.3-0.1-0.7,0-0.8,0.3c-0.1,0.2,0.2,0.5,0.5,0.6c0.3,0.1,0.7,0,0.8-0.3
				C193.1,179.7,192.8,179.4,192.5,179.3z"/>
			<path class="st19" d="M194.9,179.7c-0.4,0-0.7,0.2-0.7,0.5c0,0.3,0.3,0.5,0.7,0.4c0.4,0,0.7-0.2,0.7-0.5
				C195.5,179.9,195.2,179.7,194.9,179.7z"/>
			<path class="st19" d="M197.9,179.7c0-0.3-0.4-0.4-0.7-0.3c-0.4,0.1-0.6,0.3-0.6,0.6c0,0.2,0.4,0.4,0.7,0.3
				C197.7,180.2,197.9,180,197.9,179.7z"/>
		</g>
		<g>
			<g>
				<g>
					<path class="st2" d="M236.6,156.6c0,1.2-0.1,2.3-0.2,3.4c0,0.1,0,0.3,0,0.4c-0.1,0.6-0.2,1.3-0.3,1.9c0,0.1,0,0.3-0.1,0.4
						c-2.2,10.9-10.1,19.7-20.5,23.2c-1.6,0.3-2.1-0.7-2.1-1.5c0-1,0-4.3,0-8.5c0-2.9-1-4.8-2.1-5.7c5.3-0.6,10.9-2.3,13.1-8.6
						c0-0.1,0.1-0.3,0.1-0.4c0.1-0.4,0.2-0.8,0.3-1.2c0-0.1,0.1-0.3,0.1-0.4c0.3-1.4,0.4-2.9,0.4-4.6c0-3.4-1.2-6.1-3.2-8.3
						c0.3-0.8,1.4-3.9-0.3-8.2c0,0-2.6-0.8-8.5,3.2c-2.5-0.7-5.1-1-7.7-1c-2.6,0-5.3,0.4-7.7,1c-5.9-4-8.5-3.2-8.5-3.2
						c-1.7,4.3-0.6,7.4-0.3,8.2c-2,2.2-3.2,4.9-3.2,8.3c0,1.7,0.2,3.3,0.4,4.6c0,0.1,0.1,0.3,0.1,0.4c0.1,0.4,0.2,0.8,0.3,1.2
						c0,0.1,0.1,0.3,0.1,0.4c2.2,6.3,7.7,8,13.1,8.6c-0.9,0.8-1.7,2.1-2,4.1c-1.8,0.8-6.2,2.2-9-2.6c0,0-1.6-3-4.7-3.2
						c0,0-3,0-0.2,1.9c0,0,2,0.9,3.4,4.5c0,0,1.8,5.5,10.4,3.6c0,2.6,0,5,0,5.7c0,0.8-0.6,1.8-2.1,1.5
						c-10.4-3.5-18.3-12.3-20.5-23.2l0,0c0-0.1,0-0.2-0.1-0.4c-0.1-0.6-0.2-1.3-0.3-1.9c0-0.1,0-0.3,0-0.4c-0.1-1.1-0.2-2.3-0.2-3.4
						c0-17,13.8-30.8,30.9-30.8S236.6,139.6,236.6,156.6z"/>
				</g>
				<g>
					<path class="st2" d="M186.3,169.6c-0.2-0.1-0.5-0.1-0.5,0.1c-0.1,0.2,0,0.4,0.3,0.5c0.2,0.1,0.5,0.1,0.5-0.1
						C186.6,169.9,186.5,169.7,186.3,169.6z"/>
				</g>
				<g>
					<path class="st2" d="M187.7,170.8c-0.2-0.2-0.5-0.3-0.6-0.1c-0.2,0.1-0.1,0.4,0.1,0.6s0.5,0.3,0.6,0.1
						C188,171.3,187.9,171,187.7,170.8z"/>
				</g>
				<g>
					<path class="st2" d="M189,172.5c-0.2-0.3-0.5-0.4-0.7-0.3c-0.2,0.1-0.2,0.5,0,0.7c0.2,0.3,0.5,0.4,0.7,0.3
						C189.2,173.1,189.2,172.8,189,172.5z"/>
				</g>
				<g>
					<path class="st2" d="M190.5,174.2c-0.3-0.3-0.6-0.3-0.8-0.1c-0.2,0.2-0.1,0.5,0.2,0.8c0.3,0.3,0.6,0.3,0.8,0.1
						C190.9,174.8,190.8,174.4,190.5,174.2z"/>
				</g>
				<g>
					<path class="st2" d="M192.5,175.3c-0.3-0.1-0.7,0-0.8,0.3c-0.1,0.2,0.2,0.5,0.5,0.6c0.3,0.1,0.7,0,0.8-0.3
						C193.1,175.7,192.8,175.4,192.5,175.3z"/>
				</g>
				<g>
					<path class="st2" d="M194.9,175.7c-0.4,0-0.7,0.2-0.7,0.5c0,0.3,0.3,0.5,0.7,0.4c0.4,0,0.7-0.2,0.7-0.5
						C195.5,175.9,195.2,175.7,194.9,175.7z"/>
				</g>
				<g>
					<path class="st2" d="M197.9,175.7c0-0.3-0.4-0.4-0.7-0.3c-0.4,0.1-0.6,0.3-0.6,0.6c0,0.2,0.4,0.4,0.7,0.3
						C197.7,176.2,197.9,176,197.9,175.7z"/>
				</g>
			</g>
		</g>
	</g>
	<g>
		<g class="st18">
			<path class="st19" d="M356.9,149c-3.3,0-6.3,1.4-8.5,3.9l-5.3-3.8c0.6-1.6,0.9-3.2,0.9-5c0-1.7-0.3-3.3-0.9-4.9l5.3-3.7
				c2.1,2.4,5.2,3.8,8.5,3.8c6.2,0,11.3-5.1,11.3-11.3c0-6.2-5.1-11.3-11.3-11.3c-6.2,0-11.3,5.1-11.3,11.3c0,1.1,0.2,2.2,0.5,3.2
				l-5.3,3.7c-2.2-2.7-5.4-4.7-9-5.3v-6.4c5.2-1.1,9-5.7,9-11.1c0-6.2-5.1-11.3-11.3-11.3c-6.2,0-11.3,5.1-11.3,11.3
				c0,5.4,3.8,9.9,8.8,11v6.5c-6.9,1.2-12.1,7.2-12.1,14.3c0,7.2,5.3,13.2,12.2,14.4v6.8c-5.1,1.1-8.9,5.6-8.9,11
				c0,6.2,5.1,11.3,11.3,11.3c6.2,0,11.3-5.1,11.3-11.3c0-5.4-3.8-9.9-8.9-11v-6.8c3.6-0.6,6.7-2.5,8.9-5.2l5.4,3.8
				c-0.3,1-0.5,2.1-0.5,3.2c0,6.2,5.1,11.3,11.3,11.3c6.2,0,11.3-5.1,11.3-11.3C368.2,154.1,363.2,149,356.9,149z M356.9,122.6
				c3,0,5.5,2.5,5.5,5.5c0,3-2.5,5.5-5.5,5.5c-3,0-5.5-2.5-5.5-5.5C351.4,125,353.9,122.6,356.9,122.6z M323.9,112.3
				c0-3,2.5-5.5,5.5-5.5c3,0,5.5,2.5,5.5,5.5s-2.5,5.5-5.5,5.5C326.4,117.7,323.9,115.3,323.9,112.3z M334.9,176.4
				c0,3-2.5,5.5-5.5,5.5s-5.5-2.5-5.5-5.5c0-3,2.5-5.5,5.5-5.5S334.9,173.4,334.9,176.4z M329.4,151.8c-4.2,0-7.6-3.4-7.6-7.6
				c0-4.2,3.4-7.6,7.6-7.6c4.2,0,7.6,3.4,7.6,7.6S333.6,151.8,329.4,151.8z M356.9,165.8c-3,0-5.5-2.5-5.5-5.5c0-3,2.5-5.5,5.5-5.5
				c3,0,5.5,2.5,5.5,5.5C362.4,163.4,360,165.8,356.9,165.8z"/>
		</g>
		<g>
			<g>
				<path class="st15" d="M356.9,145c-3.3,0-6.3,1.4-8.5,3.9l-5.3-3.8c0.6-1.6,0.9-3.2,0.9-5c0-1.7-0.3-3.3-0.9-4.9l5.3-3.7
					c2.1,2.4,5.2,3.8,8.5,3.8c6.2,0,11.3-5.1,11.3-11.3c0-6.2-5.1-11.3-11.3-11.3c-6.2,0-11.3,5.1-11.3,11.3c0,1.1,0.2,2.2,0.5,3.2
					l-5.3,3.7c-2.2-2.7-5.4-4.7-9-5.3v-6.4c5.2-1.1,9-5.7,9-11.1c0-6.2-5.1-11.3-11.3-11.3c-6.2,0-11.3,5.1-11.3,11.3
					c0,5.4,3.8,9.9,8.8,11v6.5c-6.9,1.2-12.1,7.2-12.1,14.3c0,7.2,5.3,13.2,12.2,14.4v6.8c-5.1,1.1-8.9,5.6-8.9,11
					c0,6.2,5.1,11.3,11.3,11.3c6.2,0,11.3-5.1,11.3-11.3c0-5.4-3.8-9.9-8.9-11v-6.8c3.6-0.6,6.7-2.5,8.9-5.2l5.4,3.8
					c-0.3,1-0.5,2.1-0.5,3.2c0,6.2,5.1,11.3,11.3,11.3c6.2,0,11.3-5.1,11.3-11.3C368.2,150.1,363.2,145,356.9,145z M356.9,118.6
					c3,0,5.5,2.5,5.5,5.5c0,3-2.5,5.5-5.5,5.5c-3,0-5.5-2.5-5.5-5.5C351.4,121,353.9,118.6,356.9,118.6z M323.9,108.3
					c0-3,2.5-5.5,5.5-5.5c3,0,5.5,2.5,5.5,5.5s-2.5,5.5-5.5,5.5C326.4,113.7,323.9,111.3,323.9,108.3z M334.9,172.4
					c0,3-2.5,5.5-5.5,5.5s-5.5-2.5-5.5-5.5c0-3,2.5-5.5,5.5-5.5S334.9,169.4,334.9,172.4z M329.4,147.8c-4.2,0-7.6-3.4-7.6-7.6
					c0-4.2,3.4-7.6,7.6-7.6c4.2,0,7.6,3.4,7.6,7.6S333.6,147.8,329.4,147.8z M356.9,161.8c-3,0-5.5-2.5-5.5-5.5c0-3,2.5-5.5,5.5-5.5
					c3,0,5.5,2.5,5.5,5.5C362.4,159.4,360,161.8,356.9,161.8z"/>
			</g>
		</g>
	</g>
	<g>
		<g class="st18">
			<path class="st19" d="M248.7,82.5c-1.8,0.3-3.9,0.8-5,1.4c-1,0.6-0.9,2.4-0.2,3.3c0.7,0.9,1.6,0.9,2.7,0.4c0.7-0.3,1.5-1,2.4-1.8
				l0.1-2.1L248.7,82.5L248.7,82.5z M300.7,83.4c-1-0.6-2.9-1.1-4.6-1.4l0.2,3.1l0,0.6c0.7,0.6,1.3,1.1,1.9,1.3
				c1.1,0.5,1.9,0.5,2.7-0.4C301.5,85.7,301.7,84,300.7,83.4L300.7,83.4z M250,119.5c-1.3,2.4,2.1,4.3,4,2.7
				c1.5-1.3,2.6-2.5,5.2-2.9c-1.9-0.8-3.7-1.8-5.1-3C252.3,117.1,250.9,118.1,250,119.5z M290.4,121.6c1.5,1.9,5.2,0.2,4.1-2.3
				c-0.7-1.6-2.1-3-3.7-3.8c-1.1,1-2.4,2-4,2.8C288.5,119.1,289.4,120.2,290.4,121.6L290.4,121.6z"/>
			<path class="st21" d="M248.7,82.5c-1.8,0.3-3.9,0.8-5,1.4c-1,0.6-0.9,2.4-0.2,3.3c0.7,0.9,1.6,0.9,2.7,0.4c0.7-0.3,1.5-1,2.4-1.8
				l0.1-2.1L248.7,82.5L248.7,82.5z M300.7,83.4c-1-0.6-2.9-1.1-4.6-1.4l0.2,3.1l0,0.6c0.7,0.6,1.3,1.1,1.9,1.3
				c1.1,0.5,1.9,0.5,2.7-0.4C301.5,85.7,301.7,84,300.7,83.4L300.7,83.4z M250,119.5c-1.3,2.4,2.1,4.3,4,2.7
				c1.5-1.3,2.6-2.5,5.2-2.9c-1.9-0.8-3.7-1.8-5.1-3C252.3,117.1,250.9,118.1,250,119.5z M290.4,121.6c1.5,1.9,5.2,0.2,4.1-2.3
				c-0.7-1.6-2.1-3-3.7-3.8c-1.1,1-2.4,2-4,2.8C288.5,119.1,289.4,120.2,290.4,121.6L290.4,121.6z"/>
			<path class="st22" d="M243.3,86.8c0.5-0.3,0.8-0.7,1.6-1.1 M301.1,86.2c-0.5-0.3-0.8-0.7-1.6-1.1 M250.8,122.2
				c0.1-0.7,0.5-1.8,1.6-2.8 M293.4,122c0-0.7-0.2-2.1-1.2-3"/>
			<path class="st19" d="M248.1,53.2c0-0.9,0.8-1.7,1.7-1.7c0.6,0,1,0.3,1.4,0.7c0.8-1.2,1.7-2.3,2.7-3.2c-0.5-0.5-1.3-0.9-2.6-1
				c-4.2-0.6-6.3,1.5-6.8,4.3c-0.5,2.7,1,5.6,4.2,6.3c0.3-1.3,0.7-2.5,1.2-3.6C248.9,54.9,248.1,54.2,248.1,53.2L248.1,53.2z"/>
			<path class="st23" d="M248.1,53.2c0-0.9,0.8-1.7,1.7-1.7c0.6,0,1,0.3,1.4,0.7c0.8-1.2,1.7-2.3,2.7-3.2c-0.5-0.5-1.3-0.9-2.6-1
				c-4.2-0.6-6.3,1.5-6.8,4.3c-0.5,2.7,1,5.6,4.2,6.3c0.3-1.3,0.7-2.5,1.2-3.6C248.9,54.9,248.1,54.2,248.1,53.2L248.1,53.2z"/>
			<path class="st19" d="M249.8,51.5c-0.9,0-1.7,0.8-1.7,1.7c0,0.9,0.7,1.7,1.7,1.7c0.3-0.8,0.7-1.5,1.1-2.2
				c0.1-0.2,0.2-0.3,0.3-0.5C250.9,51.8,250.4,51.5,249.8,51.5z"/>
			<path class="st19" d="M298.6,51.2c-0.5-2.8-2.6-4.9-6.8-4.3c-1.5,0.2-2.3,0.6-2.8,1.2c0.9,0.8,1.8,1.7,2.6,2.8l0.1,0.2
				c0.3-0.4,0.8-0.7,1.4-0.7c0.9,0,1.7,0.8,1.7,1.7c0,0.8-0.6,1.5-1.4,1.7c0.6,1.1,1,2.3,1.4,3.7C297.7,56.5,299,53.7,298.6,51.2
				L298.6,51.2z"/>
			<path class="st23" d="M298.6,51.2c-0.5-2.8-2.6-4.9-6.8-4.3c-1.5,0.2-2.3,0.6-2.8,1.2c0.9,0.8,1.8,1.7,2.6,2.8l0.1,0.2
				c0.3-0.4,0.8-0.7,1.4-0.7c0.9,0,1.7,0.8,1.7,1.7c0,0.8-0.6,1.5-1.4,1.7c0.6,1.1,1,2.3,1.4,3.7C297.7,56.5,299,53.7,298.6,51.2
				L298.6,51.2z"/>
			<path class="st19" d="M294.7,52c0-0.9-0.8-1.7-1.7-1.7c-0.6,0-1.1,0.3-1.4,0.7c0.7,0.9,1.2,1.7,1.7,2.7
				C294.1,53.5,294.7,52.9,294.7,52L294.7,52z"/>
			<path class="st19" d="M291.6,51l-0.1-0.2c-0.8-1.1-1.7-2-2.6-2.8c-4-3.5-9.3-4.7-16.9-4.5c-6.6,0.2-13.6,1.3-18.2,5.4
				c-1,0.9-1.9,2-2.7,3.2c-0.1,0.2-0.2,0.3-0.3,0.5c-0.4,0.7-0.8,1.5-1.1,2.2c-0.5,1.1-0.9,2.3-1.2,3.6c-0.6,2.5-1,5.5-1,9
				c0,6.1,1.2,9.1,1.1,15l0,1.2l-0.1,2.1c-0.2,7.2-0.1,14.3-0.2,19.2c-0.1,4.5,2,8.5,5.7,11.4c1.5,1.2,3.2,2.2,5.1,3
				c3.4,1.4,7.5,2.2,12.1,2.2c6.8,0,11.8-1.3,15.5-3.3c1.5-0.8,2.9-1.8,4-2.8c2.8-2.6,4.2-5.6,4.9-8.4c1.6-6.6,1.3-11.4,0.7-21.4
				l0-0.6l-0.2-3.1c-0.2-5,0-7.3-0.1-13.1c-0.1-4.9-0.4-8.5-1.3-11.5c-0.4-1.3-0.8-2.5-1.4-3.7C292.9,52.8,292.3,51.9,291.6,51
				L291.6,51z"/>
			<ellipse class="st19" cx="262.1" cy="55.6" rx="7.4" ry="7.2"/>
			<ellipse class="st23" cx="262.1" cy="55.6" rx="7.4" ry="7.2"/>
			<circle class="st19" cx="258.2" cy="55.9" r="2.6"/>
			<circle class="st19" cx="259.3" cy="56.5" r="0.7"/>
			<ellipse class="st19" cx="280.7" cy="54.7" rx="7.4" ry="7.2"/>
			<ellipse class="st23" cx="280.7" cy="54.7" rx="7.4" ry="7.2"/>
			<circle class="st19" cx="276.8" cy="55.1" r="2.6"/>
			<circle class="st19" cx="277.9" cy="55.7" r="0.7"/>
			<path class="st19" d="M271.6,66.2c-1.5,0-1.7,0.7-2.9,0.9l-0.2,3.1c-0.1,2.7,3.3,2.1,3.3,0.5v-4.5
				C271.8,66.2,271.7,66.2,271.6,66.2L271.6,66.2z"/>
			<path class="st19" d="M271.9,70.7c0,1.6,3.4,2.2,3.3-0.5L275,67c-1.6-0.1-1.8-0.8-3.2-0.8V70.7L271.9,70.7z"/>
			<path class="st19" d="M277,63.5c-0.6-0.6-1.3-1-2.2-1.1c-0.5,0.7-1.7,1.2-3.2,1.2c-1.4,0-2.6-0.5-3.1-1.2c-1,0.2-1.7,0.6-2.3,1.3
				c-1.2,1.3-0.6,3.4,1,3.5c0.7,0,1.2,0,1.6-0.1c1.3-0.2,1.5-0.9,2.9-0.9c0.1,0,0.2,0,0.2,0c1.4,0,1.6,0.8,3.2,0.8
				c0.3,0,0.7,0,1.1,0C277.7,66.8,278.2,64.8,277,63.5L277,63.5z"/>
			<path class="st19" d="M271.6,63.6c1.4,0,2.7-0.5,3.2-1.2c0.1-0.2,0.2-0.5,0.2-0.7c0-1.1-1.5-1.9-3.4-1.9c-1.9,0-3.4,0.9-3.4,1.9
				c0,0.3,0.1,0.5,0.3,0.8C269,63.1,270.2,63.6,271.6,63.6L271.6,63.6z"/>
		</g>
		<g>
			<g>
				<g>
					<g>
						<g>
							<path class="st15" d="M248.7,78.5c-1.8,0.3-3.9,0.8-5,1.4c-1,0.6-0.9,2.4-0.2,3.3c0.7,0.9,1.6,0.9,2.7,0.4
								c0.7-0.3,1.5-1,2.4-1.8l0.1-2.1L248.7,78.5L248.7,78.5z M300.7,79.4c-1-0.6-2.9-1.1-4.6-1.4l0.2,3.1l0,0.6
								c0.7,0.6,1.3,1.1,1.9,1.3c1.1,0.5,1.9,0.5,2.7-0.4C301.5,81.7,301.7,80,300.7,79.4L300.7,79.4z M250,115.5
								c-1.3,2.4,2.1,4.3,4,2.7c1.5-1.3,2.6-2.5,5.2-2.9c-1.9-0.8-3.7-1.8-5.1-3C252.3,113.1,250.9,114.1,250,115.5z M290.4,117.6
								c1.5,1.9,5.2,0.2,4.1-2.3c-0.7-1.6-2.1-3-3.7-3.8c-1.1,1-2.4,2-4,2.8C288.5,115.1,289.4,116.2,290.4,117.6L290.4,117.6z"/>
						</g>
						<g>
							<path class="st24" d="M248.7,78.5c-1.8,0.3-3.9,0.8-5,1.4c-1,0.6-0.9,2.4-0.2,3.3c0.7,0.9,1.6,0.9,2.7,0.4
								c0.7-0.3,1.5-1,2.4-1.8l0.1-2.1L248.7,78.5L248.7,78.5z M300.7,79.4c-1-0.6-2.9-1.1-4.6-1.4l0.2,3.1l0,0.6
								c0.7,0.6,1.3,1.1,1.9,1.3c1.1,0.5,1.9,0.5,2.7-0.4C301.5,81.7,301.7,80,300.7,79.4L300.7,79.4z M250,115.5
								c-1.3,2.4,2.1,4.3,4,2.7c1.5-1.3,2.6-2.5,5.2-2.9c-1.9-0.8-3.7-1.8-5.1-3C252.3,113.1,250.9,114.1,250,115.5z M290.4,117.6
								c1.5,1.9,5.2,0.2,4.1-2.3c-0.7-1.6-2.1-3-3.7-3.8c-1.1,1-2.4,2-4,2.8C288.5,115.1,289.4,116.2,290.4,117.6L290.4,117.6z"/>
						</g>
					</g>
					<g>
						<g>
							<path class="st25" d="M243.3,82.8c0.5-0.3,0.8-0.7,1.6-1.1 M301.1,82.2c-0.5-0.3-0.8-0.7-1.6-1.1 M250.8,118.2
								c0.1-0.7,0.5-1.8,1.6-2.8 M293.4,118c0-0.7-0.2-2.1-1.2-3"/>
						</g>
					</g>
					<g>
						<path class="st17" d="M248.1,49.2c0-0.9,0.8-1.7,1.7-1.7c0.6,0,1,0.3,1.4,0.7c0.8-1.2,1.7-2.3,2.7-3.2c-0.5-0.5-1.3-0.9-2.6-1
							c-4.2-0.6-6.3,1.5-6.8,4.3c-0.5,2.7,1,5.6,4.2,6.3c0.3-1.3,0.7-2.5,1.2-3.6C248.9,50.9,248.1,50.2,248.1,49.2L248.1,49.2z"/>
						<path class="st26" d="M248.1,49.2c0-0.9,0.8-1.7,1.7-1.7c0.6,0,1,0.3,1.4,0.7c0.8-1.2,1.7-2.3,2.7-3.2c-0.5-0.5-1.3-0.9-2.6-1
							c-4.2-0.6-6.3,1.5-6.8,4.3c-0.5,2.7,1,5.6,4.2,6.3c0.3-1.3,0.7-2.5,1.2-3.6C248.9,50.9,248.1,50.2,248.1,49.2L248.1,49.2z"/>
					</g>
				</g>
				<path class="st14" d="M249.8,47.5c-0.9,0-1.7,0.8-1.7,1.7c0,0.9,0.7,1.7,1.7,1.7c0.3-0.8,0.7-1.5,1.1-2.2
					c0.1-0.2,0.2-0.3,0.3-0.5C250.9,47.8,250.4,47.5,249.8,47.5z"/>
				<g>
					<path class="st17" d="M298.6,47.2c-0.5-2.8-2.6-4.9-6.8-4.3c-1.5,0.2-2.3,0.6-2.8,1.2c0.9,0.8,1.8,1.7,2.6,2.8l0.1,0.2
						c0.3-0.4,0.8-0.7,1.4-0.7c0.9,0,1.7,0.8,1.7,1.7c0,0.8-0.6,1.5-1.4,1.7c0.6,1.1,1,2.3,1.4,3.7C297.7,52.5,299,49.7,298.6,47.2
						L298.6,47.2z"/>
					<path class="st26" d="M298.6,47.2c-0.5-2.8-2.6-4.9-6.8-4.3c-1.5,0.2-2.3,0.6-2.8,1.2c0.9,0.8,1.8,1.7,2.6,2.8l0.1,0.2
						c0.3-0.4,0.8-0.7,1.4-0.7c0.9,0,1.7,0.8,1.7,1.7c0,0.8-0.6,1.5-1.4,1.7c0.6,1.1,1,2.3,1.4,3.7C297.7,52.5,299,49.7,298.6,47.2
						L298.6,47.2z"/>
				</g>
				<path class="st14" d="M294.7,48c0-0.9-0.8-1.7-1.7-1.7c-0.6,0-1.1,0.3-1.4,0.7c0.7,0.9,1.2,1.7,1.7,2.7
					C294.1,49.5,294.7,48.9,294.7,48L294.7,48z"/>
				<g>
					<g>
						<path class="st2" d="M291.6,47l-0.1-0.2c-0.8-1.1-1.7-2-2.6-2.8c-4-3.5-9.3-4.7-16.9-4.5c-6.6,0.2-13.6,1.3-18.2,5.4
							c-1,0.9-1.9,2-2.7,3.2c-0.1,0.2-0.2,0.3-0.3,0.5c-0.4,0.7-0.8,1.5-1.1,2.2c-0.5,1.1-0.9,2.3-1.2,3.6c-0.6,2.5-1,5.5-1,9
							c0,6.1,1.2,9.1,1.1,15l0,1.2l-0.1,2.1c-0.2,7.2-0.1,14.3-0.2,19.2c-0.1,4.5,2,8.5,5.7,11.4c1.5,1.2,3.2,2.2,5.1,3
							c3.4,1.4,7.5,2.2,12.1,2.2c6.8,0,11.8-1.3,15.5-3.3c1.5-0.8,2.9-1.8,4-2.8c2.8-2.6,4.2-5.6,4.9-8.4c1.6-6.6,1.3-11.4,0.7-21.4
							l0-0.6l-0.2-3.1c-0.2-5,0-7.3-0.1-13.1c-0.1-4.9-0.4-8.5-1.3-11.5c-0.4-1.3-0.8-2.5-1.4-3.7C292.9,48.8,292.3,47.9,291.6,47
							L291.6,47z"/>
					</g>
					<g>
						<ellipse class="st27" cx="262.1" cy="51.6" rx="7.4" ry="7.2"/>
						<ellipse class="st26" cx="262.1" cy="51.6" rx="7.4" ry="7.2"/>
					</g>
				</g>
				<g>
					<circle class="st13" cx="258.2" cy="51.9" r="2.6"/>
				</g>
				<circle class="st27" cx="259.3" cy="52.5" r="0.7"/>
				<g>
					<ellipse class="st27" cx="280.7" cy="50.7" rx="7.4" ry="7.2"/>
					<ellipse class="st26" cx="280.7" cy="50.7" rx="7.4" ry="7.2"/>
				</g>
				<g>
					<circle class="st13" cx="276.8" cy="51.1" r="2.6"/>
				</g>
				<circle class="st27" cx="277.9" cy="51.7" r="0.7"/>
				<g>
					<path class="st27" d="M271.6,62.2c-1.5,0-1.7,0.7-2.9,0.9l-0.2,3.1c-0.1,2.7,3.3,2.1,3.3,0.5v-4.5
						C271.8,62.2,271.7,62.2,271.6,62.2L271.6,62.2z"/>
					<path class="st27" d="M271.9,66.7c0,1.6,3.4,2.2,3.3-0.5L275,63c-1.6-0.1-1.8-0.8-3.2-0.8V66.7L271.9,66.7z"/>
				</g>
				<g>
					<path class="st15" d="M277,59.5c-0.6-0.6-1.3-1-2.2-1.1c-0.5,0.7-1.7,1.2-3.2,1.2c-1.4,0-2.6-0.5-3.1-1.2
						c-1,0.2-1.7,0.6-2.3,1.3c-1.2,1.3-0.6,3.4,1,3.5c0.7,0,1.2,0,1.6-0.1c1.3-0.2,1.5-0.9,2.9-0.9c0.1,0,0.2,0,0.2,0
						c1.4,0,1.6,0.8,3.2,0.8c0.3,0,0.7,0,1.1,0C277.7,62.8,278.2,60.8,277,59.5L277,59.5z"/>
				</g>
				<g>
					<path class="st13" d="M271.6,59.6c1.4,0,2.7-0.5,3.2-1.2c0.1-0.2,0.2-0.5,0.2-0.7c0-1.1-1.5-1.9-3.4-1.9
						c-1.9,0-3.4,0.9-3.4,1.9c0,0.3,0.1,0.5,0.3,0.8C269,59.1,270.2,59.6,271.6,59.6L271.6,59.6z"/>
				</g>
			</g>
		</g>
	</g>
	<g transform="matrix(2.5377204 0 0 2.5377204 -12.870824 -44.131613)">
		<g class="st18">
			<path class="st19" d="M30.5,72.7C30.5,72.6,30.4,72.6,30.5,72.7c-0.1-0.3-0.2-0.5-0.1-0.8h-5.4L33,57.7l2.7,4.7l0.8-1.4l-2.3-4.1
				c-0.2-0.4-0.7-0.7-1.1-0.7c-0.5,0-0.9,0.3-1.1,0.8l-8.2,14.4c-0.2,0.4-0.3,0.9-0.1,1.4c0.3,0.4,0.7,0.6,1.2,0.6h6.9
				C31.2,73.3,30.7,73.1,30.5,72.7z"/>
			<path class="st19" d="M46.3,71.3l-6.7-11.9c-0.2-0.4-0.7-0.7-1.1-0.8c-0.5,0-0.9,0.3-1.1,0.8L36.4,61l0.8,1.4l1.2-2.1l6.7,11.7
				h-2.5c0,0.2,0,0.4-0.1,0.6c0,0,0,0.1-0.1,0.1l0,0c-0.3,0.4-0.7,0.6-1.2,0.6h4c0.5,0,0.9-0.2,1.2-0.6
				C46.6,72.2,46.5,71.7,46.3,71.3z"/>
			<path class="st19" d="M42.4,72.6L42.4,72.6c0-0.1,0.1-0.1,0.1-0.2c0.1-0.2,0.1-0.4,0.1-0.6c0-0.2-0.1-0.4-0.2-0.6l-5.1-9L36.4,61
				l-0.8,1.4l-5.1,9c-0.1,0.2-0.2,0.4-0.2,0.6c0,0.2,0,0.5,0.1,0.7c0,0,0,0.1,0,0.1c0.3,0.4,0.7,0.6,1.2,0.6h9.5
				C41.7,73.3,42.1,73,42.4,72.6z M36.4,63.7l4.7,8.2h-9.3L36.4,63.7z"/>
		</g>
		<g>
			<g>
				<g>
					<path class="st15" d="M30.5,71.1C30.5,71.1,30.4,71,30.5,71.1c-0.1-0.3-0.2-0.5-0.1-0.8h-5.4L33,56.1l2.7,4.7l0.8-1.4l-2.3-4.1
						c-0.2-0.4-0.7-0.7-1.1-0.7c-0.5,0-0.9,0.3-1.1,0.8l-8.2,14.4c-0.2,0.4-0.3,0.9-0.1,1.4c0.3,0.4,0.7,0.6,1.2,0.6h6.9
						C31.2,71.7,30.7,71.5,30.5,71.1z"/>
				</g>
				<g>
					<path class="st2" d="M46.3,69.7l-6.7-11.9c-0.2-0.4-0.7-0.7-1.1-0.8c-0.5,0-0.9,0.3-1.1,0.8l-0.9,1.5l0.8,1.4l1.2-2.1l6.7,11.7
						h-2.5c0,0.2,0,0.4-0.1,0.6c0,0,0,0.1-0.1,0.1l0,0c-0.3,0.4-0.7,0.6-1.2,0.6h4c0.5,0,0.9-0.2,1.2-0.6
						C46.6,70.6,46.5,70.1,46.3,69.7z"/>
				</g>
				<g>
					<g>
						<path class="st13" d="M42.4,71.1L42.4,71.1c0-0.1,0.1-0.1,0.1-0.2c0.1-0.2,0.1-0.4,0.1-0.6c0-0.2-0.1-0.4-0.2-0.6l-5.1-9
							l-0.8-1.4l-0.8,1.4l-5.1,9c-0.1,0.2-0.2,0.4-0.2,0.6c0,0.2,0,0.5,0.1,0.7c0,0,0,0.1,0,0.1c0.3,0.4,0.7,0.6,1.2,0.6h9.5
							C41.7,71.7,42.1,71.5,42.4,71.1z M36.4,62.1l4.7,8.2h-9.3L36.4,62.1z"/>
					</g>
				</g>
			</g>
		</g>
	</g>
	<g>
		<path class="st28" d="M491.5,470.4h-105c-4.6,0-8.4-3.8-8.4-8.4V268.5c0-4.6,3.8-8.4,8.4-8.4h105c4.6,0,8.4,3.8,8.4,8.4v193.6
			C499.9,466.7,496.1,470.4,491.5,470.4z"/>
		<path class="st16" d="M487.8,470.4h-105c-4.6,0-8.4-3.8-8.4-8.4V268.5c0-4.6,3.8-8.4,8.4-8.4h105c4.6,0,8.4,3.8,8.4,8.4v193.6
			C496.2,466.7,492.4,470.4,487.8,470.4z"/>
		<path class="st15" d="M486,292H384.6c-1.8,0-3.3-1.5-3.3-3.3v-18.5c0-1.8,1.5-3.3,3.3-3.3H486c1.8,0,3.3,1.5,3.3,3.3v18.5
			C489.3,290.5,487.8,292,486,292z"/>
		<path class="st0" d="M446.2,277.4h-58.4c-0.5,0-1-0.4-1-1v-1c0-0.5,0.4-1,1-1h58.4c0.5,0,1,0.4,1,1v1
			C447.1,277,446.7,277.4,446.2,277.4z"/>
		<path class="st0" d="M446.2,284.4h-58.4c-0.5,0-1-0.4-1-1v-1c0-0.5,0.4-1,1-1h58.4c0.5,0,1,0.4,1,1v1
			C447.1,284,446.7,284.4,446.2,284.4z"/>
		<g>
			<path class="st0" d="M456.6,277.4h-1.1c-0.5,0-1-0.4-1-1v-1c0-0.5,0.4-1,1-1h1.1c0.5,0,1,0.4,1,1v1
				C457.6,277,457.2,277.4,456.6,277.4z"/>
			<path class="st0" d="M456.6,284.4h-1.1c-0.5,0-1-0.4-1-1v-1c0-0.5,0.4-1,1-1h1.1c0.5,0,1,0.4,1,1v1
				C457.6,284,457.2,284.4,456.6,284.4z"/>
		</g>
		<g>
			<path class="st0" d="M462.8,277.4h-1.1c-0.5,0-1-0.4-1-1v-1c0-0.5,0.4-1,1-1h1.1c0.5,0,1,0.4,1,1v1
				C463.7,277,463.3,277.4,462.8,277.4z"/>
			<path class="st0" d="M462.8,284.4h-1.1c-0.5,0-1-0.4-1-1v-1c0-0.5,0.4-1,1-1h1.1c0.5,0,1,0.4,1,1v1
				C463.7,284,463.3,284.4,462.8,284.4z"/>
		</g>
		<g>
			<path class="st0" d="M468.9,277.4h-1.1c-0.5,0-1-0.4-1-1v-1c0-0.5,0.4-1,1-1h1.1c0.5,0,1,0.4,1,1v1
				C469.9,277,469.4,277.4,468.9,277.4z"/>
			<path class="st0" d="M468.9,284.4h-1.1c-0.5,0-1-0.4-1-1v-1c0-0.5,0.4-1,1-1h1.1c0.5,0,1,0.4,1,1v1
				C469.9,284,469.4,284.4,468.9,284.4z"/>
		</g>
		<circle class="st2" cx="480.2" cy="276" r="2.3"/>
		<circle class="st2" cx="480.2" cy="282.9" r="1.7"/>
		<path class="st15" d="M486,323.4H384.6c-1.8,0-3.3-1.5-3.3-3.3v-18.5c0-1.8,1.5-3.3,3.3-3.3H486c1.8,0,3.3,1.5,3.3,3.3v18.5
			C489.3,321.9,487.8,323.4,486,323.4z"/>
		<path class="st0" d="M446.2,308.8h-58.4c-0.5,0-1-0.4-1-1v-1c0-0.5,0.4-1,1-1h58.4c0.5,0,1,0.4,1,1v1
			C447.1,308.4,446.7,308.8,446.2,308.8z"/>
		<path class="st0" d="M446.2,315.8h-58.4c-0.5,0-1-0.4-1-1v-1c0-0.5,0.4-1,1-1h58.4c0.5,0,1,0.4,1,1v1
			C447.1,315.4,446.7,315.8,446.2,315.8z"/>
		<g>
			<path class="st0" d="M456.6,308.8h-1.1c-0.5,0-1-0.4-1-1v-1c0-0.5,0.4-1,1-1h1.1c0.5,0,1,0.4,1,1v1
				C457.6,308.4,457.2,308.8,456.6,308.8z"/>
			<path class="st0" d="M456.6,315.8h-1.1c-0.5,0-1-0.4-1-1v-1c0-0.5,0.4-1,1-1h1.1c0.5,0,1,0.4,1,1v1
				C457.6,315.4,457.2,315.8,456.6,315.8z"/>
		</g>
		<g>
			<path class="st0" d="M462.8,308.8h-1.1c-0.5,0-1-0.4-1-1v-1c0-0.5,0.4-1,1-1h1.1c0.5,0,1,0.4,1,1v1
				C463.7,308.4,463.3,308.8,462.8,308.8z"/>
			<path class="st0" d="M462.8,315.8h-1.1c-0.5,0-1-0.4-1-1v-1c0-0.5,0.4-1,1-1h1.1c0.5,0,1,0.4,1,1v1
				C463.7,315.4,463.3,315.8,462.8,315.8z"/>
		</g>
		<g>
			<path class="st0" d="M468.9,308.8h-1.1c-0.5,0-1-0.4-1-1v-1c0-0.5,0.4-1,1-1h1.1c0.5,0,1,0.4,1,1v1
				C469.9,308.4,469.4,308.8,468.9,308.8z"/>
			<path class="st0" d="M468.9,315.8h-1.1c-0.5,0-1-0.4-1-1v-1c0-0.5,0.4-1,1-1h1.1c0.5,0,1,0.4,1,1v1
				C469.9,315.4,469.4,315.8,468.9,315.8z"/>
		</g>
		<circle class="st2" cx="480.2" cy="307.4" r="2.3"/>
		<circle class="st2" cx="480.2" cy="314.3" r="1.7"/>
		<path class="st15" d="M486,354.8H384.6c-1.8,0-3.3-1.5-3.3-3.3V333c0-1.8,1.5-3.3,3.3-3.3H486c1.8,0,3.3,1.5,3.3,3.3v18.5
			C489.3,353.3,487.8,354.8,486,354.8z"/>
		<path class="st0" d="M446.2,340.2h-58.4c-0.5,0-1-0.4-1-1v-1c0-0.5,0.4-1,1-1h58.4c0.5,0,1,0.4,1,1v1
			C447.1,339.8,446.7,340.2,446.2,340.2z"/>
		<path class="st0" d="M446.2,347.2h-58.4c-0.5,0-1-0.4-1-1v-1c0-0.5,0.4-1,1-1h58.4c0.5,0,1,0.4,1,1v1
			C447.1,346.8,446.7,347.2,446.2,347.2z"/>
		<g>
			<path class="st0" d="M456.6,340.2h-1.1c-0.5,0-1-0.4-1-1v-1c0-0.5,0.4-1,1-1h1.1c0.5,0,1,0.4,1,1v1
				C457.6,339.8,457.2,340.2,456.6,340.2z"/>
			<path class="st0" d="M456.6,347.2h-1.1c-0.5,0-1-0.4-1-1v-1c0-0.5,0.4-1,1-1h1.1c0.5,0,1,0.4,1,1v1
				C457.6,346.8,457.2,347.2,456.6,347.2z"/>
		</g>
		<g>
			<path class="st0" d="M462.8,340.2h-1.1c-0.5,0-1-0.4-1-1v-1c0-0.5,0.4-1,1-1h1.1c0.5,0,1,0.4,1,1v1
				C463.7,339.8,463.3,340.2,462.8,340.2z"/>
			<path class="st0" d="M462.8,347.2h-1.1c-0.5,0-1-0.4-1-1v-1c0-0.5,0.4-1,1-1h1.1c0.5,0,1,0.4,1,1v1
				C463.7,346.8,463.3,347.2,462.8,347.2z"/>
		</g>
		<g>
			<path class="st0" d="M468.9,340.2h-1.1c-0.5,0-1-0.4-1-1v-1c0-0.5,0.4-1,1-1h1.1c0.5,0,1,0.4,1,1v1
				C469.9,339.8,469.4,340.2,468.9,340.2z"/>
			<path class="st0" d="M468.9,347.2h-1.1c-0.5,0-1-0.4-1-1v-1c0-0.5,0.4-1,1-1h1.1c0.5,0,1,0.4,1,1v1
				C469.9,346.8,469.4,347.2,468.9,347.2z"/>
		</g>
		<circle class="st2" cx="480.2" cy="338.8" r="2.3"/>
		<circle class="st2" cx="480.2" cy="345.7" r="1.7"/>
		<path class="st15" d="M486,386.2H384.6c-1.8,0-3.3-1.5-3.3-3.3v-18.5c0-1.8,1.5-3.3,3.3-3.3H486c1.8,0,3.3,1.5,3.3,3.3v18.5
			C489.3,384.7,487.8,386.2,486,386.2z"/>
		<path class="st0" d="M446.2,371.7h-58.4c-0.5,0-1-0.4-1-1v-1c0-0.5,0.4-1,1-1h58.4c0.5,0,1,0.4,1,1v1
			C447.1,371.2,446.7,371.7,446.2,371.7z"/>
		<path class="st0" d="M446.2,378.6h-58.4c-0.5,0-1-0.4-1-1v-1c0-0.5,0.4-1,1-1h58.4c0.5,0,1,0.4,1,1v1
			C447.1,378.2,446.7,378.6,446.2,378.6z"/>
		<g>
			<path class="st0" d="M456.6,371.7h-1.1c-0.5,0-1-0.4-1-1v-1c0-0.5,0.4-1,1-1h1.1c0.5,0,1,0.4,1,1v1
				C457.6,371.2,457.2,371.7,456.6,371.7z"/>
			<path class="st0" d="M456.6,378.6h-1.1c-0.5,0-1-0.4-1-1v-1c0-0.5,0.4-1,1-1h1.1c0.5,0,1,0.4,1,1v1
				C457.6,378.2,457.2,378.6,456.6,378.6z"/>
		</g>
		<g>
			<path class="st0" d="M462.8,371.7h-1.1c-0.5,0-1-0.4-1-1v-1c0-0.5,0.4-1,1-1h1.1c0.5,0,1,0.4,1,1v1
				C463.7,371.2,463.3,371.7,462.8,371.7z"/>
			<path class="st0" d="M462.8,378.6h-1.1c-0.5,0-1-0.4-1-1v-1c0-0.5,0.4-1,1-1h1.1c0.5,0,1,0.4,1,1v1
				C463.7,378.2,463.3,378.6,462.8,378.6z"/>
		</g>
		<g>
			<path class="st0" d="M468.9,371.7h-1.1c-0.5,0-1-0.4-1-1v-1c0-0.5,0.4-1,1-1h1.1c0.5,0,1,0.4,1,1v1
				C469.9,371.2,469.4,371.7,468.9,371.7z"/>
			<path class="st0" d="M468.9,378.6h-1.1c-0.5,0-1-0.4-1-1v-1c0-0.5,0.4-1,1-1h1.1c0.5,0,1,0.4,1,1v1
				C469.9,378.2,469.4,378.6,468.9,378.6z"/>
		</g>
		<circle class="st2" cx="480.2" cy="370.2" r="2.3"/>
		<circle class="st2" cx="480.2" cy="377.2" r="1.7"/>
		<path class="st15" d="M486,417.6H384.6c-1.8,0-3.3-1.5-3.3-3.3v-18.5c0-1.8,1.5-3.3,3.3-3.3H486c1.8,0,3.3,1.5,3.3,3.3v18.5
			C489.3,416.1,487.8,417.6,486,417.6z"/>
		<path class="st0" d="M446.2,403.1h-58.4c-0.5,0-1-0.4-1-1v-1c0-0.5,0.4-1,1-1h58.4c0.5,0,1,0.4,1,1v1
			C447.1,402.6,446.7,403.1,446.2,403.1z"/>
		<path class="st0" d="M446.2,410h-58.4c-0.5,0-1-0.4-1-1v-1c0-0.5,0.4-1,1-1h58.4c0.5,0,1,0.4,1,1v1
			C447.1,409.6,446.7,410,446.2,410z"/>
		<g>
			<path class="st0" d="M456.6,403.1h-1.1c-0.5,0-1-0.4-1-1v-1c0-0.5,0.4-1,1-1h1.1c0.5,0,1,0.4,1,1v1
				C457.6,402.6,457.2,403.1,456.6,403.1z"/>
			<path class="st0" d="M456.6,410h-1.1c-0.5,0-1-0.4-1-1v-1c0-0.5,0.4-1,1-1h1.1c0.5,0,1,0.4,1,1v1
				C457.6,409.6,457.2,410,456.6,410z"/>
		</g>
		<g>
			<path class="st0" d="M462.8,403.1h-1.1c-0.5,0-1-0.4-1-1v-1c0-0.5,0.4-1,1-1h1.1c0.5,0,1,0.4,1,1v1
				C463.7,402.6,463.3,403.1,462.8,403.1z"/>
			<path class="st0" d="M462.8,410h-1.1c-0.5,0-1-0.4-1-1v-1c0-0.5,0.4-1,1-1h1.1c0.5,0,1,0.4,1,1v1
				C463.7,409.6,463.3,410,462.8,410z"/>
		</g>
		<g>
			<path class="st0" d="M468.9,403.1h-1.1c-0.5,0-1-0.4-1-1v-1c0-0.5,0.4-1,1-1h1.1c0.5,0,1,0.4,1,1v1
				C469.9,402.6,469.4,403.1,468.9,403.1z"/>
			<path class="st0" d="M468.9,410h-1.1c-0.5,0-1-0.4-1-1v-1c0-0.5,0.4-1,1-1h1.1c0.5,0,1,0.4,1,1v1
				C469.9,409.6,469.4,410,468.9,410z"/>
		</g>
		<circle class="st2" cx="480.2" cy="401.6" r="2.3"/>
		<circle class="st2" cx="480.2" cy="408.6" r="1.7"/>
		<path class="st15" d="M486,449H384.6c-1.8,0-3.3-1.5-3.3-3.3v-18.5c0-1.8,1.5-3.3,3.3-3.3H486c1.8,0,3.3,1.5,3.3,3.3v18.5
			C489.3,447.5,487.8,449,486,449z"/>
		<path class="st0" d="M446.2,434.5h-58.4c-0.5,0-1-0.4-1-1v-1c0-0.5,0.4-1,1-1h58.4c0.5,0,1,0.4,1,1v1
			C447.1,434,446.7,434.5,446.2,434.5z"/>
		<path class="st0" d="M446.2,441.4h-58.4c-0.5,0-1-0.4-1-1v-1c0-0.5,0.4-1,1-1h58.4c0.5,0,1,0.4,1,1v1
			C447.1,441,446.7,441.4,446.2,441.4z"/>
		<g>
			<path class="st0" d="M456.6,434.5h-1.1c-0.5,0-1-0.4-1-1v-1c0-0.5,0.4-1,1-1h1.1c0.5,0,1,0.4,1,1v1
				C457.6,434,457.2,434.5,456.6,434.5z"/>
			<path class="st0" d="M456.6,441.4h-1.1c-0.5,0-1-0.4-1-1v-1c0-0.5,0.4-1,1-1h1.1c0.5,0,1,0.4,1,1v1
				C457.6,441,457.2,441.4,456.6,441.4z"/>
		</g>
		<g>
			<path class="st0" d="M462.8,434.5h-1.1c-0.5,0-1-0.4-1-1v-1c0-0.5,0.4-1,1-1h1.1c0.5,0,1,0.4,1,1v1
				C463.7,434,463.3,434.5,462.8,434.5z"/>
			<path class="st0" d="M462.8,441.4h-1.1c-0.5,0-1-0.4-1-1v-1c0-0.5,0.4-1,1-1h1.1c0.5,0,1,0.4,1,1v1
				C463.7,441,463.3,441.4,462.8,441.4z"/>
		</g>
		<g>
			<path class="st0" d="M468.9,434.5h-1.1c-0.5,0-1-0.4-1-1v-1c0-0.5,0.4-1,1-1h1.1c0.5,0,1,0.4,1,1v1
				C469.9,434,469.4,434.5,468.9,434.5z"/>
			<path class="st0" d="M468.9,441.4h-1.1c-0.5,0-1-0.4-1-1v-1c0-0.5,0.4-1,1-1h1.1c0.5,0,1,0.4,1,1v1
				C469.9,441,469.4,441.4,468.9,441.4z"/>
		</g>
		<circle class="st2" cx="480.2" cy="433" r="2.3"/>
		<circle class="st2" cx="480.2" cy="440" r="1.7"/>
	</g>
	<g>
		<path class="st13" d="M453.1,254.2v-4c0.6-0.2,1.1-0.4,1.7-0.7l2.8,2.8c0.7,0.7,2,0.7,2.7,0l4.8-4.8c0.7-0.7,0.7-2,0-2.7l-2.8-2.8
			c0.3-0.5,0.5-1.1,0.7-1.7h4c1.1,0,1.9-0.9,1.9-1.9v-6.7c0-1.1-0.9-1.9-1.9-1.9h-4c-0.2-0.6-0.4-1.1-0.7-1.7l2.8-2.8
			c0.7-0.7,0.7-2,0-2.7l-4.8-4.8c-0.7-0.7-2-0.7-2.7,0l-2.8,2.8c-0.5-0.3-1.1-0.5-1.7-0.7v-4c0-1.1-0.9-1.9-1.9-1.9h-6.7
			c-1.1,0-1.9,0.9-1.9,1.9v4c-0.6,0.2-1.1,0.4-1.7,0.7l-2.8-2.8c-0.7-0.7-2-0.7-2.7,0l-4.8,4.8c-0.7,0.7-0.7,2,0,2.7l2.8,2.8
			c-0.3,0.5-0.5,1.1-0.7,1.7h-4c-1.1,0-1.9,0.9-1.9,1.9v6.7c0,1.1,0.9,1.9,1.9,1.9h4c0.2,0.6,0.4,1.1,0.7,1.7l-2.8,2.8
			c-0.7,0.7-0.7,2,0,2.7l4.8,4.8c0.7,0.7,2,0.7,2.7,0l2.8-2.8c0.5,0.3,1.1,0.5,1.7,0.7v4c0,1.1,0.9,1.9,1.9,1.9h6.7
			C452.2,256.1,453.1,255.2,453.1,254.2z M440.4,235c0-4.1,3.3-7.4,7.4-7.4s7.4,3.3,7.4,7.4s-3.3,7.4-7.4,7.4S440.4,239,440.4,235z"
			/>
		<path class="st2" d="M424.4,222v-2.9c0.4-0.1,0.8-0.3,1.2-0.5l2.1,2.1c0.5,0.5,1.4,0.5,2,0l3.5-3.5c0.5-0.5,0.5-1.4,0-2l-2.1-2.1
			c0.2-0.4,0.4-0.8,0.5-1.2h2.9c0.8,0,1.4-0.6,1.4-1.4v-4.9c0-0.8-0.6-1.4-1.4-1.4h-2.9c-0.1-0.4-0.3-0.8-0.5-1.2l2.1-2.1
			c0.5-0.5,0.5-1.4,0-2l-3.5-3.5c-0.5-0.5-1.4-0.5-2,0l-2.1,2.1c-0.4-0.2-0.8-0.4-1.2-0.5V194c0-0.8-0.6-1.4-1.4-1.4H418
			c-0.8,0-1.4,0.6-1.4,1.4v2.9c-0.4,0.1-0.8,0.3-1.2,0.5l-2.1-2.1c-0.5-0.5-1.4-0.5-2,0l-3.5,3.5c-0.5,0.5-0.5,1.4,0,2l2.1,2.1
			c-0.2,0.4-0.4,0.8-0.5,1.2h-2.9c-0.8,0-1.4,0.6-1.4,1.4v4.9c0,0.8,0.6,1.4,1.4,1.4h2.9c0.1,0.4,0.3,0.8,0.5,1.2l-2.1,2.1
			c-0.5,0.5-0.5,1.4,0,2l3.5,3.5c0.5,0.5,1.4,0.5,2,0l2.1-2.1c0.4,0.2,0.8,0.4,1.2,0.5v2.9c0,0.8,0.6,1.4,1.4,1.4h4.9
			C423.7,223.4,424.4,222.8,424.4,222z M415.1,208c0-3,2.4-5.4,5.4-5.4c3,0,5.4,2.4,5.4,5.4c0,3-2.4,5.4-5.4,5.4
			C417.5,213.4,415.1,211,415.1,208z"/>
		<path class="st15" d="M413.3,249.7v-2.5c0.4-0.1,0.7-0.3,1-0.4l1.8,1.8c0.5,0.5,1.2,0.5,1.7,0l2.9-3c0.5-0.5,0.5-1.2,0-1.7
			l-1.8-1.8c0.2-0.3,0.3-0.7,0.4-1h2.5c0.7,0,1.2-0.5,1.2-1.2v-4.2c0-0.7-0.5-1.2-1.2-1.2h-2.5c-0.1-0.4-0.3-0.7-0.4-1l1.8-1.8
			c0.5-0.5,0.5-1.2,0-1.7l-2.9-3c-0.5-0.5-1.2-0.5-1.7,0l-1.8,1.8c-0.3-0.2-0.7-0.3-1-0.4v-2.5c0-0.7-0.5-1.2-1.2-1.2h-4.2
			c-0.7,0-1.2,0.5-1.2,1.2v2.5c-0.4,0.1-0.7,0.3-1,0.4l-1.8-1.8c-0.5-0.5-1.2-0.5-1.7,0l-2.9,3c-0.5,0.5-0.5,1.2,0,1.7l1.8,1.8
			c-0.2,0.3-0.3,0.7-0.4,1h-2.5c-0.7,0-1.2,0.5-1.2,1.2v4.2c0,0.7,0.5,1.2,1.2,1.2h2.5c0.1,0.4,0.3,0.7,0.4,1l-1.8,1.8
			c-0.5,0.5-0.5,1.2,0,1.7l2.9,3c0.5,0.5,1.2,0.5,1.7,0l1.8-1.8c0.3,0.2,0.7,0.3,1,0.4v2.5c0,0.7,0.5,1.2,1.2,1.2h4.2
			C412.8,250.9,413.3,250.4,413.3,249.7z M405.5,237.8c0-2.5,2-4.6,4.6-4.6c2.5,0,4.6,2,4.6,4.6s-2,4.6-4.6,4.6
			C407.5,242.4,405.5,240.3,405.5,237.8z"/>
	</g>
	<g class="st29">
		<path class="st13" d="M455.4,255.5v-4c0.6-0.2,1.1-0.4,1.7-0.7l2.8,2.8c0.7,0.7,2,0.7,2.7,0l4.8-4.8c0.7-0.7,0.7-2,0-2.7l-2.8-2.8
			c0.3-0.5,0.5-1.1,0.7-1.7h4c1.1,0,1.9-0.9,1.9-1.9v-6.7c0-1.1-0.9-1.9-1.9-1.9h-4c-0.2-0.6-0.4-1.1-0.7-1.7l2.8-2.8
			c0.7-0.7,0.7-2,0-2.7l-4.8-4.8c-0.7-0.7-2-0.7-2.7,0l-2.8,2.8c-0.5-0.3-1.1-0.5-1.7-0.7v-4c0-1.1-0.9-1.9-1.9-1.9h-6.7
			c-1.1,0-1.9,0.9-1.9,1.9v4c-0.6,0.2-1.1,0.4-1.7,0.7l-2.8-2.8c-0.7-0.7-2-0.7-2.7,0l-4.8,4.8c-0.7,0.7-0.7,2,0,2.7l2.8,2.8
			c-0.3,0.5-0.5,1.1-0.7,1.7h-4c-1.1,0-1.9,0.9-1.9,1.9v6.7c0,1.1,0.9,1.9,1.9,1.9h4c0.2,0.6,0.4,1.1,0.7,1.7l-2.8,2.8
			c-0.7,0.7-0.7,2,0,2.7l4.8,4.8c0.7,0.7,2,0.7,2.7,0l2.8-2.8c0.5,0.3,1.1,0.5,1.7,0.7v4c0,1.1,0.9,1.9,1.9,1.9h6.7
			C454.6,257.4,455.4,256.6,455.4,255.5z M442.7,236.3c0-4.1,3.3-7.4,7.4-7.4c4.1,0,7.4,3.3,7.4,7.4c0,4.1-3.3,7.4-7.4,7.4
			C446,243.7,442.7,240.4,442.7,236.3z"/>
		<path class="st2" d="M426.7,223.3v-2.9c0.4-0.1,0.8-0.3,1.2-0.5l2.1,2.1c0.5,0.5,1.4,0.5,2,0l3.5-3.5c0.5-0.5,0.5-1.4,0-2
			l-2.1-2.1c0.2-0.4,0.4-0.8,0.5-1.2h2.9c0.8,0,1.4-0.6,1.4-1.4v-4.9c0-0.8-0.6-1.4-1.4-1.4h-2.9c-0.1-0.4-0.3-0.8-0.5-1.2l2.1-2.1
			c0.5-0.5,0.5-1.4,0-2l-3.5-3.5c-0.5-0.5-1.4-0.5-2,0l-2.1,2.1c-0.4-0.2-0.8-0.4-1.2-0.5v-2.9c0-0.8-0.6-1.4-1.4-1.4h-4.9
			c-0.8,0-1.4,0.6-1.4,1.4v2.9c-0.4,0.1-0.8,0.3-1.2,0.5l-2.1-2.1c-0.5-0.5-1.4-0.5-2,0l-3.5,3.5c-0.5,0.5-0.5,1.4,0,2l2.1,2.1
			c-0.2,0.4-0.4,0.8-0.5,1.2h-2.9c-0.8,0-1.4,0.6-1.4,1.4v4.9c0,0.8,0.6,1.4,1.4,1.4h2.9c0.1,0.4,0.3,0.8,0.5,1.2l-2.1,2.1
			c-0.5,0.5-0.5,1.4,0,2l3.5,3.5c0.5,0.5,1.4,0.5,2,0l2.1-2.1c0.4,0.2,0.8,0.4,1.2,0.5v2.9c0,0.8,0.6,1.4,1.4,1.4h4.9
			C426.1,224.7,426.7,224.1,426.7,223.3z M417.5,209.3c0-3,2.4-5.4,5.4-5.4c3,0,5.4,2.4,5.4,5.4s-2.4,5.4-5.4,5.4
			C419.9,214.7,417.5,212.3,417.5,209.3z"/>
		<path class="st15" d="M415.7,251v-2.5c0.4-0.1,0.7-0.3,1-0.4l1.8,1.8c0.5,0.5,1.2,0.5,1.7,0l2.9-3c0.5-0.5,0.5-1.2,0-1.7l-1.8-1.8
			c0.2-0.3,0.3-0.7,0.4-1h2.5c0.7,0,1.2-0.5,1.2-1.2v-4.2c0-0.7-0.5-1.2-1.2-1.2h-2.5c-0.1-0.4-0.3-0.7-0.4-1l1.8-1.8
			c0.5-0.5,0.5-1.2,0-1.7l-2.9-3c-0.5-0.5-1.2-0.5-1.7,0l-1.8,1.8c-0.3-0.2-0.7-0.3-1-0.4v-2.5c0-0.7-0.5-1.2-1.2-1.2h-4.2
			c-0.7,0-1.2,0.5-1.2,1.2v2.5c-0.4,0.1-0.7,0.3-1,0.4l-1.8-1.8c-0.5-0.5-1.2-0.5-1.7,0l-2.9,3c-0.5,0.5-0.5,1.2,0,1.7l1.8,1.8
			c-0.2,0.3-0.3,0.7-0.4,1h-2.5c-0.7,0-1.2,0.5-1.2,1.2v4.2c0,0.7,0.5,1.2,1.2,1.2h2.5c0.1,0.4,0.3,0.7,0.4,1l-1.8,1.8
			c-0.5,0.5-0.5,1.2,0,1.7l2.9,3c0.5,0.5,1.2,0.5,1.7,0l1.8-1.8c0.3,0.2,0.7,0.3,1,0.4v2.5c0,0.7,0.5,1.2,1.2,1.2h4.2
			C415.1,252.2,415.7,251.7,415.7,251z M407.8,239.2c0-2.5,2-4.6,4.6-4.6c2.5,0,4.6,2,4.6,4.6s-2,4.6-4.6,4.6
			C409.9,243.7,407.8,241.7,407.8,239.2z"/>
	</g>
	<g>
		<path class="st28" d="M145.2,364.4c1.8,0,3.3-1.5,3.3-3.3v-18.5c0-1.8-1.5-3.3-3.3-3.3H43.8c-1.8,0-3.3,1.5-3.3,3.3V361
			c0,1.8,1.5,3.3,3.3,3.3h45.1v3.4H43.8c-1.8,0-3.3,1.5-3.3,3.3v18.5c0,1.8,1.5,3.3,3.3,3.3h45.1v3.4H43.8c-1.8,0-3.3,1.5-3.3,3.3
			V418c0,1.8,1.5,3.3,3.3,3.3h45.1v3.4H43.8c-1.8,0-3.3,1.5-3.3,3.3v18.5c0,1.8,1.5,3.3,3.3,3.3h45.1v5.5c-1.7,1.1-3.1,2.6-3.9,4.4
			H44.7c-2.3,0-4.2,1.9-4.2,4.2v3.8c0,2.3,1.9,4.2,4.2,4.2H87c1.9,1.9,4.6,3.1,7.5,3.1s5.6-1.2,7.5-3.1h42.3c2.3,0,4.2-1.9,4.2-4.2
			v-3.8c0-2.3-1.9-4.2-4.2-4.2h-40.2c-0.9-1.8-2.2-3.3-3.9-4.4v-5.5h45.1c1.8,0,3.3-1.5,3.3-3.3v-18.5c0-1.8-1.5-3.3-3.3-3.3h-45.1
			v-3.4h45.1c1.8,0,3.3-1.5,3.3-3.3v-18.5c0-1.8-1.5-3.3-3.3-3.3h-45.1v-3.4h45.1c1.8,0,3.3-1.5,3.3-3.3v-18.5
			c0-1.8-1.5-3.3-3.3-3.3h-45.1v-3.4H145.2z"/>
		<path class="st15" d="M148.3,364.4c1.8,0,3.3-1.5,3.3-3.3v-18.5c0-1.8-1.5-3.3-3.3-3.3H46.9c-1.8,0-3.3,1.5-3.3,3.3V361
			c0,1.8,1.5,3.3,3.3,3.3H92v3.4H46.9c-1.8,0-3.3,1.5-3.3,3.3v18.5c0,1.8,1.5,3.3,3.3,3.3H92v3.4H46.9c-1.8,0-3.3,1.5-3.3,3.3V418
			c0,1.8,1.5,3.3,3.3,3.3H92v3.4H46.9c-1.8,0-3.3,1.5-3.3,3.3v18.5c0,1.8,1.5,3.3,3.3,3.3H92v5.5c-1.7,1.1-3.1,2.6-3.9,4.4H47.8
			c-2.3,0-4.2,1.9-4.2,4.2v3.8c0,2.3,1.9,4.2,4.2,4.2h42.3c1.9,1.9,4.6,3.1,7.5,3.1s5.6-1.2,7.5-3.1h42.3c2.3,0,4.2-1.9,4.2-4.2
			v-3.8c0-2.3-1.9-4.2-4.2-4.2h-40.2c-0.9-1.8-2.2-3.3-3.9-4.4v-5.5h45.1c1.8,0,3.3-1.5,3.3-3.3v-18.5c0-1.8-1.5-3.3-3.3-3.3h-45.1
			v-3.4h45.1c1.8,0,3.3-1.5,3.3-3.3v-18.5c0-1.8-1.5-3.3-3.3-3.3h-45.1v-3.4h45.1c1.8,0,3.3-1.5,3.3-3.3v-18.5
			c0-1.8-1.5-3.3-3.3-3.3h-45.1v-3.4H148.3z"/>
		<path class="st2" d="M108.5,349.8H50.1c-0.5,0-1-0.4-1-1v-1c0-0.5,0.4-1,1-1h58.4c0.5,0,1,0.4,1,1v1
			C109.5,349.4,109,349.8,108.5,349.8z"/>
		<path class="st2" d="M108.5,356.8H50.1c-0.5,0-1-0.4-1-1v-1c0-0.5,0.4-1,1-1h58.4c0.5,0,1,0.4,1,1v1
			C109.5,356.3,109,356.8,108.5,356.8z"/>
		<g>
			<path class="st2" d="M119,349.8h-1.1c-0.5,0-1-0.4-1-1v-1c0-0.5,0.4-1,1-1h1.1c0.5,0,1,0.4,1,1v1
				C119.9,349.4,119.5,349.8,119,349.8z"/>
			<path class="st2" d="M119,356.8h-1.1c-0.5,0-1-0.4-1-1v-1c0-0.5,0.4-1,1-1h1.1c0.5,0,1,0.4,1,1v1
				C119.9,356.3,119.5,356.8,119,356.8z"/>
		</g>
		<g>
			<path class="st2" d="M125.1,349.8h-1.1c-0.5,0-1-0.4-1-1v-1c0-0.5,0.4-1,1-1h1.1c0.5,0,1,0.4,1,1v1
				C126.1,349.4,125.6,349.8,125.1,349.8z"/>
			<path class="st2" d="M125.1,356.8h-1.1c-0.5,0-1-0.4-1-1v-1c0-0.5,0.4-1,1-1h1.1c0.5,0,1,0.4,1,1v1
				C126.1,356.3,125.6,356.8,125.1,356.8z"/>
		</g>
		<g>
			<path class="st2" d="M131.2,349.8h-1.1c-0.5,0-1-0.4-1-1v-1c0-0.5,0.4-1,1-1h1.1c0.5,0,1,0.4,1,1v1
				C132.2,349.4,131.8,349.8,131.2,349.8z"/>
			<path class="st2" d="M131.2,356.8h-1.1c-0.5,0-1-0.4-1-1v-1c0-0.5,0.4-1,1-1h1.1c0.5,0,1,0.4,1,1v1
				C132.2,356.3,131.8,356.8,131.2,356.8z"/>
		</g>
		<circle class="st2" cx="142.5" cy="348.3" r="2.3"/>
		<circle class="st2" cx="142.5" cy="355.3" r="1.7"/>
		<path class="st2" d="M108.5,378.3H50.1c-0.5,0-1-0.4-1-1v-1c0-0.5,0.4-1,1-1h58.4c0.5,0,1,0.4,1,1v1
			C109.5,377.9,109,378.3,108.5,378.3z"/>
		<path class="st2" d="M108.5,385.3H50.1c-0.5,0-1-0.4-1-1v-1c0-0.5,0.4-1,1-1h58.4c0.5,0,1,0.4,1,1v1
			C109.5,384.8,109,385.3,108.5,385.3z"/>
		<g>
			<path class="st2" d="M119,378.3h-1.1c-0.5,0-1-0.4-1-1v-1c0-0.5,0.4-1,1-1h1.1c0.5,0,1,0.4,1,1v1
				C119.9,377.9,119.5,378.3,119,378.3z"/>
			<path class="st2" d="M119,385.3h-1.1c-0.5,0-1-0.4-1-1v-1c0-0.5,0.4-1,1-1h1.1c0.5,0,1,0.4,1,1v1
				C119.9,384.8,119.5,385.3,119,385.3z"/>
		</g>
		<g>
			<path class="st2" d="M125.1,378.3h-1.1c-0.5,0-1-0.4-1-1v-1c0-0.5,0.4-1,1-1h1.1c0.5,0,1,0.4,1,1v1
				C126.1,377.9,125.6,378.3,125.1,378.3z"/>
			<path class="st2" d="M125.1,385.3h-1.1c-0.5,0-1-0.4-1-1v-1c0-0.5,0.4-1,1-1h1.1c0.5,0,1,0.4,1,1v1
				C126.1,384.8,125.6,385.3,125.1,385.3z"/>
		</g>
		<g>
			<path class="st2" d="M131.2,378.3h-1.1c-0.5,0-1-0.4-1-1v-1c0-0.5,0.4-1,1-1h1.1c0.5,0,1,0.4,1,1v1
				C132.2,377.9,131.8,378.3,131.2,378.3z"/>
			<path class="st2" d="M131.2,385.3h-1.1c-0.5,0-1-0.4-1-1v-1c0-0.5,0.4-1,1-1h1.1c0.5,0,1,0.4,1,1v1
				C132.2,384.8,131.8,385.3,131.2,385.3z"/>
		</g>
		<circle class="st2" cx="142.5" cy="376.8" r="2.3"/>
		<circle class="st2" cx="142.5" cy="383.8" r="1.7"/>
		<path class="st2" d="M108.5,406.8H50.1c-0.5,0-1-0.4-1-1v-1c0-0.5,0.4-1,1-1h58.4c0.5,0,1,0.4,1,1v1
			C109.5,406.3,109,406.8,108.5,406.8z"/>
		<path class="st2" d="M108.5,413.7H50.1c-0.5,0-1-0.4-1-1v-1c0-0.5,0.4-1,1-1h58.4c0.5,0,1,0.4,1,1v1
			C109.5,413.3,109,413.7,108.5,413.7z"/>
		<g>
			<path class="st2" d="M119,406.8h-1.1c-0.5,0-1-0.4-1-1v-1c0-0.5,0.4-1,1-1h1.1c0.5,0,1,0.4,1,1v1
				C119.9,406.3,119.5,406.8,119,406.8z"/>
			<path class="st2" d="M119,413.7h-1.1c-0.5,0-1-0.4-1-1v-1c0-0.5,0.4-1,1-1h1.1c0.5,0,1,0.4,1,1v1
				C119.9,413.3,119.5,413.7,119,413.7z"/>
		</g>
		<g>
			<path class="st2" d="M125.1,406.8h-1.1c-0.5,0-1-0.4-1-1v-1c0-0.5,0.4-1,1-1h1.1c0.5,0,1,0.4,1,1v1
				C126.1,406.3,125.6,406.8,125.1,406.8z"/>
			<path class="st2" d="M125.1,413.7h-1.1c-0.5,0-1-0.4-1-1v-1c0-0.5,0.4-1,1-1h1.1c0.5,0,1,0.4,1,1v1
				C126.1,413.3,125.6,413.7,125.1,413.7z"/>
		</g>
		<g>
			<path class="st2" d="M131.2,406.8h-1.1c-0.5,0-1-0.4-1-1v-1c0-0.5,0.4-1,1-1h1.1c0.5,0,1,0.4,1,1v1
				C132.2,406.3,131.8,406.8,131.2,406.8z"/>
			<path class="st2" d="M131.2,413.7h-1.1c-0.5,0-1-0.4-1-1v-1c0-0.5,0.4-1,1-1h1.1c0.5,0,1,0.4,1,1v1
				C132.2,413.3,131.8,413.7,131.2,413.7z"/>
		</g>
		<circle class="st2" cx="142.5" cy="405.3" r="2.3"/>
		<circle class="st2" cx="142.5" cy="412.3" r="1.7"/>
		<path class="st2" d="M108.5,435.3H50.1c-0.5,0-1-0.4-1-1v-1c0-0.5,0.4-1,1-1h58.4c0.5,0,1,0.4,1,1v1
			C109.5,434.8,109,435.3,108.5,435.3z"/>
		<path class="st2" d="M108.5,442.2H50.1c-0.5,0-1-0.4-1-1v-1c0-0.5,0.4-1,1-1h58.4c0.5,0,1,0.4,1,1v1
			C109.5,441.8,109,442.2,108.5,442.2z"/>
		<g>
			<path class="st2" d="M119,435.3h-1.1c-0.5,0-1-0.4-1-1v-1c0-0.5,0.4-1,1-1h1.1c0.5,0,1,0.4,1,1v1
				C119.9,434.8,119.5,435.3,119,435.3z"/>
			<path class="st2" d="M119,442.2h-1.1c-0.5,0-1-0.4-1-1v-1c0-0.5,0.4-1,1-1h1.1c0.5,0,1,0.4,1,1v1
				C119.9,441.8,119.5,442.2,119,442.2z"/>
		</g>
		<g>
			<path class="st2" d="M125.1,435.3h-1.1c-0.5,0-1-0.4-1-1v-1c0-0.5,0.4-1,1-1h1.1c0.5,0,1,0.4,1,1v1
				C126.1,434.8,125.6,435.3,125.1,435.3z"/>
			<path class="st2" d="M125.1,442.2h-1.1c-0.5,0-1-0.4-1-1v-1c0-0.5,0.4-1,1-1h1.1c0.5,0,1,0.4,1,1v1
				C126.1,441.8,125.6,442.2,125.1,442.2z"/>
		</g>
		<g>
			<path class="st2" d="M131.2,435.3h-1.1c-0.5,0-1-0.4-1-1v-1c0-0.5,0.4-1,1-1h1.1c0.5,0,1,0.4,1,1v1
				C132.2,434.8,131.8,435.3,131.2,435.3z"/>
			<path class="st2" d="M131.2,442.2h-1.1c-0.5,0-1-0.4-1-1v-1c0-0.5,0.4-1,1-1h1.1c0.5,0,1,0.4,1,1v1
				C132.2,441.8,131.8,442.2,131.2,442.2z"/>
		</g>
		<circle class="st2" cx="142.5" cy="433.8" r="2.3"/>
		<circle class="st2" cx="142.5" cy="440.8" r="1.7"/>
	</g>
</g>
<g>
</g>
<g>
</g>
<g>
</g>
<g>
</g>
<g>
</g>
<g>
</g>
</svg>
